<mxfile host="www.draw.io" modified="2020-02-07T23:29:34.822Z" agent="Mozilla/5.0 (Windows NT 10.0; Win64; x64) AppleWebKit/537.36 (KHTML, like Gecko) Chrome/80.0.3987.87 Safari/537.36" etag="gNzaiUwvpwZbVQSxmvBH" version="12.6.6" type="github" pages="3">
  <diagram id="C5RBs43oDa-KdzZeNtuy" name="Use-Case">
    <mxGraphModel dx="1360" dy="834" grid="1" gridSize="10" guides="1" tooltips="1" connect="1" arrows="1" fold="1" page="1" pageScale="1" pageWidth="827" pageHeight="1169" math="0" shadow="0">
      <root>
        <mxCell id="WIyWlLk6GJQsqaUBKTNV-0"/>
        <mxCell id="WIyWlLk6GJQsqaUBKTNV-1" parent="WIyWlLk6GJQsqaUBKTNV-0"/>
        <mxCell id="GEu1YzyEF7eNZb3y68F2-0" value="Player&lt;br&gt;" style="shape=umlActor;verticalLabelPosition=bottom;labelBackgroundColor=#ffffff;verticalAlign=top;html=1;outlineConnect=0;" parent="WIyWlLk6GJQsqaUBKTNV-1" vertex="1">
          <mxGeometry x="40" y="280" width="30" height="60" as="geometry"/>
        </mxCell>
        <mxCell id="GEu1YzyEF7eNZb3y68F2-1" value="" style="rounded=0;whiteSpace=wrap;html=1;fillColor=none;" parent="WIyWlLk6GJQsqaUBKTNV-1" vertex="1">
          <mxGeometry x="160" y="40" width="520" height="600" as="geometry"/>
        </mxCell>
        <mxCell id="GEu1YzyEF7eNZb3y68F2-2" value="Game" style="text;html=1;strokeColor=none;fillColor=none;align=center;verticalAlign=middle;whiteSpace=wrap;rounded=0;fontSize=16;" parent="WIyWlLk6GJQsqaUBKTNV-1" vertex="1">
          <mxGeometry x="400" y="40" width="40" height="20" as="geometry"/>
        </mxCell>
        <mxCell id="GEu1YzyEF7eNZb3y68F2-3" value="Start Game" style="ellipse;whiteSpace=wrap;html=1;" parent="WIyWlLk6GJQsqaUBKTNV-1" vertex="1">
          <mxGeometry x="200" y="80" width="80" height="40" as="geometry"/>
        </mxCell>
        <mxCell id="GEu1YzyEF7eNZb3y68F2-33" style="edgeStyle=orthogonalEdgeStyle;rounded=0;orthogonalLoop=1;jettySize=auto;html=1;fontSize=16;endArrow=none;endFill=0;" parent="WIyWlLk6GJQsqaUBKTNV-1" source="GEu1YzyEF7eNZb3y68F2-4" target="GEu1YzyEF7eNZb3y68F2-31" edge="1">
          <mxGeometry relative="1" as="geometry">
            <Array as="points">
              <mxPoint x="460" y="460"/>
              <mxPoint x="460" y="410"/>
            </Array>
          </mxGeometry>
        </mxCell>
        <mxCell id="GEu1YzyEF7eNZb3y68F2-35" style="edgeStyle=orthogonalEdgeStyle;rounded=0;orthogonalLoop=1;jettySize=auto;html=1;fontSize=16;endArrow=none;endFill=0;" parent="WIyWlLk6GJQsqaUBKTNV-1" source="GEu1YzyEF7eNZb3y68F2-4" target="GEu1YzyEF7eNZb3y68F2-30" edge="1">
          <mxGeometry relative="1" as="geometry"/>
        </mxCell>
        <mxCell id="GEu1YzyEF7eNZb3y68F2-4" value="Talk" style="ellipse;whiteSpace=wrap;html=1;" parent="WIyWlLk6GJQsqaUBKTNV-1" vertex="1">
          <mxGeometry x="360" y="440" width="80" height="40" as="geometry"/>
        </mxCell>
        <mxCell id="GEu1YzyEF7eNZb3y68F2-16" style="edgeStyle=orthogonalEdgeStyle;rounded=0;orthogonalLoop=1;jettySize=auto;html=1;fontSize=16;endArrow=none;endFill=0;" parent="WIyWlLk6GJQsqaUBKTNV-1" source="GEu1YzyEF7eNZb3y68F2-5" target="GEu1YzyEF7eNZb3y68F2-14" edge="1">
          <mxGeometry relative="1" as="geometry">
            <Array as="points">
              <mxPoint x="240" y="290"/>
            </Array>
          </mxGeometry>
        </mxCell>
        <mxCell id="GEu1YzyEF7eNZb3y68F2-17" style="edgeStyle=orthogonalEdgeStyle;rounded=0;orthogonalLoop=1;jettySize=auto;html=1;fontSize=16;endArrow=none;endFill=0;" parent="WIyWlLk6GJQsqaUBKTNV-1" source="GEu1YzyEF7eNZb3y68F2-5" target="GEu1YzyEF7eNZb3y68F2-13" edge="1">
          <mxGeometry relative="1" as="geometry"/>
        </mxCell>
        <mxCell id="GEu1YzyEF7eNZb3y68F2-5" value="Interact with Item" style="ellipse;whiteSpace=wrap;html=1;" parent="WIyWlLk6GJQsqaUBKTNV-1" vertex="1">
          <mxGeometry x="200" y="320" width="80" height="40" as="geometry"/>
        </mxCell>
        <mxCell id="GEu1YzyEF7eNZb3y68F2-23" style="edgeStyle=orthogonalEdgeStyle;rounded=0;orthogonalLoop=1;jettySize=auto;html=1;fontSize=16;endArrow=none;endFill=0;" parent="WIyWlLk6GJQsqaUBKTNV-1" source="GEu1YzyEF7eNZb3y68F2-6" target="GEu1YzyEF7eNZb3y68F2-20" edge="1">
          <mxGeometry relative="1" as="geometry">
            <Array as="points">
              <mxPoint x="240" y="170"/>
            </Array>
          </mxGeometry>
        </mxCell>
        <mxCell id="GEu1YzyEF7eNZb3y68F2-24" style="edgeStyle=orthogonalEdgeStyle;rounded=0;orthogonalLoop=1;jettySize=auto;html=1;fontSize=16;endArrow=none;endFill=0;" parent="WIyWlLk6GJQsqaUBKTNV-1" source="GEu1YzyEF7eNZb3y68F2-6" target="GEu1YzyEF7eNZb3y68F2-19" edge="1">
          <mxGeometry relative="1" as="geometry"/>
        </mxCell>
        <mxCell id="GEu1YzyEF7eNZb3y68F2-6" value="Navigate Rooms" style="ellipse;whiteSpace=wrap;html=1;" parent="WIyWlLk6GJQsqaUBKTNV-1" vertex="1">
          <mxGeometry x="200" y="200" width="80" height="40" as="geometry"/>
        </mxCell>
        <mxCell id="GEu1YzyEF7eNZb3y68F2-10" style="edgeStyle=orthogonalEdgeStyle;rounded=0;orthogonalLoop=1;jettySize=auto;html=1;fontSize=16;endArrow=none;endFill=0;" parent="WIyWlLk6GJQsqaUBKTNV-1" source="GEu1YzyEF7eNZb3y68F2-7" target="GEu1YzyEF7eNZb3y68F2-9" edge="1">
          <mxGeometry relative="1" as="geometry">
            <Array as="points">
              <mxPoint x="240" y="510"/>
            </Array>
          </mxGeometry>
        </mxCell>
        <mxCell id="GEu1YzyEF7eNZb3y68F2-11" style="edgeStyle=orthogonalEdgeStyle;rounded=0;orthogonalLoop=1;jettySize=auto;html=1;fontSize=16;endArrow=none;endFill=0;" parent="WIyWlLk6GJQsqaUBKTNV-1" source="GEu1YzyEF7eNZb3y68F2-7" target="GEu1YzyEF7eNZb3y68F2-4" edge="1">
          <mxGeometry relative="1" as="geometry"/>
        </mxCell>
        <mxCell id="GEu1YzyEF7eNZb3y68F2-7" value="Interact with NPC" style="ellipse;whiteSpace=wrap;html=1;" parent="WIyWlLk6GJQsqaUBKTNV-1" vertex="1">
          <mxGeometry x="200" y="440" width="80" height="40" as="geometry"/>
        </mxCell>
        <mxCell id="GEu1YzyEF7eNZb3y68F2-8" value="Quit Game" style="ellipse;whiteSpace=wrap;html=1;" parent="WIyWlLk6GJQsqaUBKTNV-1" vertex="1">
          <mxGeometry x="200" y="564.5" width="80" height="40" as="geometry"/>
        </mxCell>
        <mxCell id="GEu1YzyEF7eNZb3y68F2-37" style="edgeStyle=orthogonalEdgeStyle;rounded=0;orthogonalLoop=1;jettySize=auto;html=1;fontSize=16;endArrow=none;endFill=0;startArrow=classic;startFill=1;" parent="WIyWlLk6GJQsqaUBKTNV-1" source="GEu1YzyEF7eNZb3y68F2-9" target="GEu1YzyEF7eNZb3y68F2-36" edge="1">
          <mxGeometry relative="1" as="geometry"/>
        </mxCell>
        <mxCell id="GEu1YzyEF7eNZb3y68F2-9" value="Attack" style="ellipse;whiteSpace=wrap;html=1;" parent="WIyWlLk6GJQsqaUBKTNV-1" vertex="1">
          <mxGeometry x="360" y="490" width="80" height="40" as="geometry"/>
        </mxCell>
        <mxCell id="GEu1YzyEF7eNZb3y68F2-13" value="Pick Up" style="ellipse;whiteSpace=wrap;html=1;" parent="WIyWlLk6GJQsqaUBKTNV-1" vertex="1">
          <mxGeometry x="360" y="320" width="80" height="40" as="geometry"/>
        </mxCell>
        <mxCell id="GEu1YzyEF7eNZb3y68F2-14" value="Drop" style="ellipse;whiteSpace=wrap;html=1;" parent="WIyWlLk6GJQsqaUBKTNV-1" vertex="1">
          <mxGeometry x="360" y="270" width="80" height="40" as="geometry"/>
        </mxCell>
        <mxCell id="GEu1YzyEF7eNZb3y68F2-19" value="Get Description" style="ellipse;whiteSpace=wrap;html=1;" parent="WIyWlLk6GJQsqaUBKTNV-1" vertex="1">
          <mxGeometry x="360" y="200" width="80" height="40" as="geometry"/>
        </mxCell>
        <mxCell id="GEu1YzyEF7eNZb3y68F2-20" value="Change Zone" style="ellipse;whiteSpace=wrap;html=1;" parent="WIyWlLk6GJQsqaUBKTNV-1" vertex="1">
          <mxGeometry x="360" y="150" width="80" height="40" as="geometry"/>
        </mxCell>
        <mxCell id="GEu1YzyEF7eNZb3y68F2-25" value="" style="endArrow=none;html=1;fontSize=16;endFill=0;" parent="WIyWlLk6GJQsqaUBKTNV-1" source="GEu1YzyEF7eNZb3y68F2-0" target="GEu1YzyEF7eNZb3y68F2-6" edge="1">
          <mxGeometry width="50" height="50" relative="1" as="geometry">
            <mxPoint x="40" y="710" as="sourcePoint"/>
            <mxPoint x="90" y="660" as="targetPoint"/>
          </mxGeometry>
        </mxCell>
        <mxCell id="GEu1YzyEF7eNZb3y68F2-26" value="" style="endArrow=none;html=1;fontSize=16;endFill=0;" parent="WIyWlLk6GJQsqaUBKTNV-1" source="GEu1YzyEF7eNZb3y68F2-0" target="GEu1YzyEF7eNZb3y68F2-5" edge="1">
          <mxGeometry width="50" height="50" relative="1" as="geometry">
            <mxPoint x="80" y="312.7027027027027" as="sourcePoint"/>
            <mxPoint x="221.33096276364495" y="243.94709919606453" as="targetPoint"/>
          </mxGeometry>
        </mxCell>
        <mxCell id="GEu1YzyEF7eNZb3y68F2-27" value="" style="endArrow=none;html=1;fontSize=16;endFill=0;" parent="WIyWlLk6GJQsqaUBKTNV-1" source="GEu1YzyEF7eNZb3y68F2-0" target="GEu1YzyEF7eNZb3y68F2-7" edge="1">
          <mxGeometry width="50" height="50" relative="1" as="geometry">
            <mxPoint x="80" y="322.4324324324325" as="sourcePoint"/>
            <mxPoint x="211.9510872420517" y="343.8299060392517" as="targetPoint"/>
          </mxGeometry>
        </mxCell>
        <mxCell id="GEu1YzyEF7eNZb3y68F2-28" value="" style="endArrow=none;html=1;fontSize=16;endFill=0;" parent="WIyWlLk6GJQsqaUBKTNV-1" source="GEu1YzyEF7eNZb3y68F2-0" target="GEu1YzyEF7eNZb3y68F2-8" edge="1">
          <mxGeometry width="50" height="50" relative="1" as="geometry">
            <mxPoint x="80" y="332.1621621621621" as="sourcePoint"/>
            <mxPoint x="229.00445188013782" y="452.97658260551725" as="targetPoint"/>
          </mxGeometry>
        </mxCell>
        <mxCell id="GEu1YzyEF7eNZb3y68F2-29" value="" style="endArrow=none;html=1;fontSize=16;endFill=0;" parent="WIyWlLk6GJQsqaUBKTNV-1" source="GEu1YzyEF7eNZb3y68F2-0" target="GEu1YzyEF7eNZb3y68F2-3" edge="1">
          <mxGeometry width="50" height="50" relative="1" as="geometry">
            <mxPoint x="80" y="312.7027027027027" as="sourcePoint"/>
            <mxPoint x="221.33096276364495" y="243.94709919606453" as="targetPoint"/>
          </mxGeometry>
        </mxCell>
        <mxCell id="GEu1YzyEF7eNZb3y68F2-30" value="Receive Item" style="ellipse;whiteSpace=wrap;html=1;" parent="WIyWlLk6GJQsqaUBKTNV-1" vertex="1">
          <mxGeometry x="520" y="440" width="80" height="40" as="geometry"/>
        </mxCell>
        <mxCell id="GEu1YzyEF7eNZb3y68F2-31" value="Give Item" style="ellipse;whiteSpace=wrap;html=1;" parent="WIyWlLk6GJQsqaUBKTNV-1" vertex="1">
          <mxGeometry x="520" y="390" width="80" height="40" as="geometry"/>
        </mxCell>
        <mxCell id="GEu1YzyEF7eNZb3y68F2-36" value="Take Items" style="ellipse;whiteSpace=wrap;html=1;" parent="WIyWlLk6GJQsqaUBKTNV-1" vertex="1">
          <mxGeometry x="520" y="490" width="80" height="40" as="geometry"/>
        </mxCell>
        <mxCell id="GEu1YzyEF7eNZb3y68F2-39" value="&lt;font style=&quot;font-size: 10px&quot;&gt;{if NPC is dead}&lt;/font&gt;" style="text;html=1;strokeColor=none;fillColor=none;align=center;verticalAlign=middle;whiteSpace=wrap;rounded=0;fontSize=16;" parent="WIyWlLk6GJQsqaUBKTNV-1" vertex="1">
          <mxGeometry x="440" y="510" width="90" height="20" as="geometry"/>
        </mxCell>
      </root>
    </mxGraphModel>
  </diagram>
  <diagram id="GwbcWE0pJz1I2yfuWP34" name="Classes">
    <mxGraphModel dx="1360" dy="834" grid="1" gridSize="10" guides="1" tooltips="1" connect="1" arrows="1" fold="1" page="1" pageScale="1" pageWidth="827" pageHeight="1169" math="0" shadow="0">
      <root>
        <mxCell id="33f51LMxNeRnr3U8Xyu7-0"/>
        <mxCell id="33f51LMxNeRnr3U8Xyu7-1" parent="33f51LMxNeRnr3U8Xyu7-0"/>
        <mxCell id="33f51LMxNeRnr3U8Xyu7-2" value="Room" style="swimlane;fontStyle=1;align=center;verticalAlign=top;childLayout=stackLayout;horizontal=1;startSize=26;horizontalStack=0;resizeParent=1;resizeParentMax=0;resizeLast=0;collapsible=1;marginBottom=0;" parent="33f51LMxNeRnr3U8Xyu7-1" vertex="1">
          <mxGeometry x="40" y="40" width="200" height="164" as="geometry"/>
        </mxCell>
        <mxCell id="33f51LMxNeRnr3U8Xyu7-3" value="- description: String" style="text;strokeColor=none;fillColor=none;align=left;verticalAlign=top;spacingLeft=4;spacingRight=4;overflow=hidden;rotatable=0;points=[[0,0.5],[1,0.5]];portConstraint=eastwest;" parent="33f51LMxNeRnr3U8Xyu7-2" vertex="1">
          <mxGeometry y="26" width="200" height="26" as="geometry"/>
        </mxCell>
        <mxCell id="WTVUFNk9b9uKBOj6KeZF-4" value="- characters: List&lt;Character&gt;" style="text;strokeColor=none;fillColor=none;align=left;verticalAlign=top;spacingLeft=4;spacingRight=4;overflow=hidden;rotatable=0;points=[[0,0.5],[1,0.5]];portConstraint=eastwest;" parent="33f51LMxNeRnr3U8Xyu7-2" vertex="1">
          <mxGeometry y="52" width="200" height="26" as="geometry"/>
        </mxCell>
        <mxCell id="WTVUFNk9b9uKBOj6KeZF-5" value="- items: List&lt;Item&gt;" style="text;strokeColor=none;fillColor=none;align=left;verticalAlign=top;spacingLeft=4;spacingRight=4;overflow=hidden;rotatable=0;points=[[0,0.5],[1,0.5]];portConstraint=eastwest;" parent="33f51LMxNeRnr3U8Xyu7-2" vertex="1">
          <mxGeometry y="78" width="200" height="26" as="geometry"/>
        </mxCell>
        <mxCell id="WTVUFNk9b9uKBOj6KeZF-2" value="- exits: Dictionary&lt;Direction, Room&gt;" style="text;strokeColor=none;fillColor=none;align=left;verticalAlign=top;spacingLeft=4;spacingRight=4;overflow=hidden;rotatable=0;points=[[0,0.5],[1,0.5]];portConstraint=eastwest;" parent="33f51LMxNeRnr3U8Xyu7-2" vertex="1">
          <mxGeometry y="104" width="200" height="26" as="geometry"/>
        </mxCell>
        <mxCell id="33f51LMxNeRnr3U8Xyu7-4" value="" style="line;strokeWidth=1;fillColor=none;align=left;verticalAlign=middle;spacingTop=-1;spacingLeft=3;spacingRight=3;rotatable=0;labelPosition=right;points=[];portConstraint=eastwest;" parent="33f51LMxNeRnr3U8Xyu7-2" vertex="1">
          <mxGeometry y="130" width="200" height="8" as="geometry"/>
        </mxCell>
        <mxCell id="33f51LMxNeRnr3U8Xyu7-5" value="+ Show(): void" style="text;strokeColor=none;fillColor=none;align=left;verticalAlign=top;spacingLeft=4;spacingRight=4;overflow=hidden;rotatable=0;points=[[0,0.5],[1,0.5]];portConstraint=eastwest;" parent="33f51LMxNeRnr3U8Xyu7-2" vertex="1">
          <mxGeometry y="138" width="200" height="26" as="geometry"/>
        </mxCell>
        <mxCell id="33f51LMxNeRnr3U8Xyu7-6" value="Character" style="swimlane;fontStyle=1;align=center;verticalAlign=top;childLayout=stackLayout;horizontal=1;startSize=26;horizontalStack=0;resizeParent=1;resizeParentMax=0;resizeLast=0;collapsible=1;marginBottom=0;" parent="33f51LMxNeRnr3U8Xyu7-1" vertex="1">
          <mxGeometry x="280" y="42" width="200" height="320" as="geometry"/>
        </mxCell>
        <mxCell id="WTVUFNk9b9uKBOj6KeZF-1" value="- name: String" style="text;strokeColor=none;fillColor=none;align=left;verticalAlign=top;spacingLeft=4;spacingRight=4;overflow=hidden;rotatable=0;points=[[0,0.5],[1,0.5]];portConstraint=eastwest;" parent="33f51LMxNeRnr3U8Xyu7-6" vertex="1">
          <mxGeometry y="26" width="200" height="26" as="geometry"/>
        </mxCell>
        <mxCell id="33f51LMxNeRnr3U8Xyu7-7" value="- description: String" style="text;strokeColor=none;fillColor=none;align=left;verticalAlign=top;spacingLeft=4;spacingRight=4;overflow=hidden;rotatable=0;points=[[0,0.5],[1,0.5]];portConstraint=eastwest;" parent="33f51LMxNeRnr3U8Xyu7-6" vertex="1">
          <mxGeometry y="52" width="200" height="26" as="geometry"/>
        </mxCell>
        <mxCell id="WTVUFNk9b9uKBOj6KeZF-3" value="- currentRoom: Room" style="text;strokeColor=none;fillColor=none;align=left;verticalAlign=top;spacingLeft=4;spacingRight=4;overflow=hidden;rotatable=0;points=[[0,0.5],[1,0.5]];portConstraint=eastwest;" parent="33f51LMxNeRnr3U8Xyu7-6" vertex="1">
          <mxGeometry y="78" width="200" height="26" as="geometry"/>
        </mxCell>
        <mxCell id="FLVpUJsoscg-PWj0qpJr-0" value="- inventory: List&lt;Item&gt;" style="text;strokeColor=none;fillColor=none;align=left;verticalAlign=top;spacingLeft=4;spacingRight=4;overflow=hidden;rotatable=0;points=[[0,0.5],[1,0.5]];portConstraint=eastwest;" parent="33f51LMxNeRnr3U8Xyu7-6" vertex="1">
          <mxGeometry y="104" width="200" height="26" as="geometry"/>
        </mxCell>
        <mxCell id="PWqKRb8JdL17Kwem2lJo-1" value="- hp: int" style="text;strokeColor=none;fillColor=none;align=left;verticalAlign=top;spacingLeft=4;spacingRight=4;overflow=hidden;rotatable=0;points=[[0,0.5],[1,0.5]];portConstraint=eastwest;" vertex="1" parent="33f51LMxNeRnr3U8Xyu7-6">
          <mxGeometry y="130" width="200" height="26" as="geometry"/>
        </mxCell>
        <mxCell id="PWqKRb8JdL17Kwem2lJo-0" value="- brawn: int" style="text;strokeColor=none;fillColor=none;align=left;verticalAlign=top;spacingLeft=4;spacingRight=4;overflow=hidden;rotatable=0;points=[[0,0.5],[1,0.5]];portConstraint=eastwest;" vertex="1" parent="33f51LMxNeRnr3U8Xyu7-6">
          <mxGeometry y="156" width="200" height="26" as="geometry"/>
        </mxCell>
        <mxCell id="PWqKRb8JdL17Kwem2lJo-3" value="- agile: int" style="text;strokeColor=none;fillColor=none;align=left;verticalAlign=top;spacingLeft=4;spacingRight=4;overflow=hidden;rotatable=0;points=[[0,0.5],[1,0.5]];portConstraint=eastwest;" vertex="1" parent="33f51LMxNeRnr3U8Xyu7-6">
          <mxGeometry y="182" width="200" height="26" as="geometry"/>
        </mxCell>
        <mxCell id="PWqKRb8JdL17Kwem2lJo-2" value="-smart: int" style="text;strokeColor=none;fillColor=none;align=left;verticalAlign=top;spacingLeft=4;spacingRight=4;overflow=hidden;rotatable=0;points=[[0,0.5],[1,0.5]];portConstraint=eastwest;" vertex="1" parent="33f51LMxNeRnr3U8Xyu7-6">
          <mxGeometry y="208" width="200" height="26" as="geometry"/>
        </mxCell>
        <mxCell id="33f51LMxNeRnr3U8Xyu7-8" value="" style="line;strokeWidth=1;fillColor=none;align=left;verticalAlign=middle;spacingTop=-1;spacingLeft=3;spacingRight=3;rotatable=0;labelPosition=right;points=[];portConstraint=eastwest;" parent="33f51LMxNeRnr3U8Xyu7-6" vertex="1">
          <mxGeometry y="234" width="200" height="8" as="geometry"/>
        </mxCell>
        <mxCell id="SQ5E9fKJsjjnGH3ZogRJ-5" value="+ Show(): void" style="text;strokeColor=none;fillColor=none;align=left;verticalAlign=top;spacingLeft=4;spacingRight=4;overflow=hidden;rotatable=0;points=[[0,0.5],[1,0.5]];portConstraint=eastwest;" parent="33f51LMxNeRnr3U8Xyu7-6" vertex="1">
          <mxGeometry y="242" width="200" height="26" as="geometry"/>
        </mxCell>
        <mxCell id="33f51LMxNeRnr3U8Xyu7-9" value="+ Move(): void" style="text;strokeColor=none;fillColor=none;align=left;verticalAlign=top;spacingLeft=4;spacingRight=4;overflow=hidden;rotatable=0;points=[[0,0.5],[1,0.5]];portConstraint=eastwest;" parent="33f51LMxNeRnr3U8Xyu7-6" vertex="1">
          <mxGeometry y="268" width="200" height="26" as="geometry"/>
        </mxCell>
        <mxCell id="tQlpxftsyER0sdIfuciN-1" value="+ Attack(): void" style="text;strokeColor=none;fillColor=none;align=left;verticalAlign=top;spacingLeft=4;spacingRight=4;overflow=hidden;rotatable=0;points=[[0,0.5],[1,0.5]];portConstraint=eastwest;fontSize=12;" parent="33f51LMxNeRnr3U8Xyu7-6" vertex="1">
          <mxGeometry y="294" width="200" height="26" as="geometry"/>
        </mxCell>
        <mxCell id="i9DVDKD4WKrfjqX2vJvM-18" style="edgeStyle=orthogonalEdgeStyle;rounded=0;orthogonalLoop=1;jettySize=auto;html=1;endArrow=block;endFill=0;endSize=10;entryX=0.295;entryY=0.998;entryDx=0;entryDy=0;entryPerimeter=0;" edge="1" parent="33f51LMxNeRnr3U8Xyu7-1" source="33f51LMxNeRnr3U8Xyu7-10" target="tQlpxftsyER0sdIfuciN-1">
          <mxGeometry relative="1" as="geometry">
            <mxPoint x="340" y="364" as="targetPoint"/>
            <Array as="points">
              <mxPoint x="260" y="400"/>
              <mxPoint x="339" y="400"/>
            </Array>
          </mxGeometry>
        </mxCell>
        <mxCell id="33f51LMxNeRnr3U8Xyu7-10" value="NPC" style="swimlane;fontStyle=1;align=center;verticalAlign=top;childLayout=stackLayout;horizontal=1;startSize=26;horizontalStack=0;resizeParent=1;resizeParentMax=0;resizeLast=0;collapsible=1;marginBottom=0;" parent="33f51LMxNeRnr3U8Xyu7-1" vertex="1">
          <mxGeometry x="160" y="440" width="200" height="112" as="geometry"/>
        </mxCell>
        <mxCell id="33f51LMxNeRnr3U8Xyu7-11" value="- dialogue: DialogueNode" style="text;strokeColor=none;fillColor=none;align=left;verticalAlign=top;spacingLeft=4;spacingRight=4;overflow=hidden;rotatable=0;points=[[0,0.5],[1,0.5]];portConstraint=eastwest;" parent="33f51LMxNeRnr3U8Xyu7-10" vertex="1">
          <mxGeometry y="26" width="200" height="26" as="geometry"/>
        </mxCell>
        <mxCell id="L6RjQj3sZ2L0BFn-UpG--0" value="- behavior: BehaviourType" style="text;strokeColor=none;fillColor=none;align=left;verticalAlign=top;spacingLeft=4;spacingRight=4;overflow=hidden;rotatable=0;points=[[0,0.5],[1,0.5]];portConstraint=eastwest;fontSize=12;" parent="33f51LMxNeRnr3U8Xyu7-10" vertex="1">
          <mxGeometry y="52" width="200" height="26" as="geometry"/>
        </mxCell>
        <mxCell id="33f51LMxNeRnr3U8Xyu7-12" value="" style="line;strokeWidth=1;fillColor=none;align=left;verticalAlign=middle;spacingTop=-1;spacingLeft=3;spacingRight=3;rotatable=0;labelPosition=right;points=[];portConstraint=eastwest;" parent="33f51LMxNeRnr3U8Xyu7-10" vertex="1">
          <mxGeometry y="78" width="200" height="8" as="geometry"/>
        </mxCell>
        <mxCell id="33f51LMxNeRnr3U8Xyu7-13" value="-" style="text;strokeColor=none;fillColor=none;align=left;verticalAlign=top;spacingLeft=4;spacingRight=4;overflow=hidden;rotatable=0;points=[[0,0.5],[1,0.5]];portConstraint=eastwest;" parent="33f51LMxNeRnr3U8Xyu7-10" vertex="1">
          <mxGeometry y="86" width="200" height="26" as="geometry"/>
        </mxCell>
        <mxCell id="SQ5E9fKJsjjnGH3ZogRJ-0" value="DialogueNode" style="swimlane;fontStyle=1;align=center;verticalAlign=top;childLayout=stackLayout;horizontal=1;startSize=26;horizontalStack=0;resizeParent=1;resizeParentMax=0;resizeLast=0;collapsible=1;marginBottom=0;" parent="33f51LMxNeRnr3U8Xyu7-1" vertex="1">
          <mxGeometry x="880" y="40" width="200" height="114" as="geometry"/>
        </mxCell>
        <mxCell id="SQ5E9fKJsjjnGH3ZogRJ-1" value="- text: String" style="text;strokeColor=none;fillColor=none;align=left;verticalAlign=top;spacingLeft=4;spacingRight=4;overflow=hidden;rotatable=0;points=[[0,0.5],[1,0.5]];portConstraint=eastwest;" parent="SQ5E9fKJsjjnGH3ZogRJ-0" vertex="1">
          <mxGeometry y="26" width="200" height="26" as="geometry"/>
        </mxCell>
        <mxCell id="SQ5E9fKJsjjnGH3ZogRJ-4" value="- answers: List&lt;AnswerNode&gt;" style="text;strokeColor=none;fillColor=none;align=left;verticalAlign=top;spacingLeft=4;spacingRight=4;overflow=hidden;rotatable=0;points=[[0,0.5],[1,0.5]];portConstraint=eastwest;" parent="SQ5E9fKJsjjnGH3ZogRJ-0" vertex="1">
          <mxGeometry y="52" width="200" height="28" as="geometry"/>
        </mxCell>
        <mxCell id="SQ5E9fKJsjjnGH3ZogRJ-2" value="" style="line;strokeWidth=1;fillColor=none;align=left;verticalAlign=middle;spacingTop=-1;spacingLeft=3;spacingRight=3;rotatable=0;labelPosition=right;points=[];portConstraint=eastwest;" parent="SQ5E9fKJsjjnGH3ZogRJ-0" vertex="1">
          <mxGeometry y="80" width="200" height="8" as="geometry"/>
        </mxCell>
        <mxCell id="SQ5E9fKJsjjnGH3ZogRJ-3" value="+ Show(): void" style="text;strokeColor=none;fillColor=none;align=left;verticalAlign=top;spacingLeft=4;spacingRight=4;overflow=hidden;rotatable=0;points=[[0,0.5],[1,0.5]];portConstraint=eastwest;" parent="SQ5E9fKJsjjnGH3ZogRJ-0" vertex="1">
          <mxGeometry y="88" width="200" height="26" as="geometry"/>
        </mxCell>
        <mxCell id="JlAPo6KQXhplnx53PEAh-0" value="Answer" style="swimlane;fontStyle=1;align=center;verticalAlign=top;childLayout=stackLayout;horizontal=1;startSize=26;horizontalStack=0;resizeParent=1;resizeParentMax=0;resizeLast=0;collapsible=1;marginBottom=0;fillColor=none;" vertex="1" parent="33f51LMxNeRnr3U8Xyu7-1">
          <mxGeometry x="880" y="204" width="200" height="112" as="geometry"/>
        </mxCell>
        <mxCell id="JlAPo6KQXhplnx53PEAh-1" value="- text: String" style="text;strokeColor=none;fillColor=none;align=left;verticalAlign=top;spacingLeft=4;spacingRight=4;overflow=hidden;rotatable=0;points=[[0,0.5],[1,0.5]];portConstraint=eastwest;" vertex="1" parent="JlAPo6KQXhplnx53PEAh-0">
          <mxGeometry y="26" width="200" height="26" as="geometry"/>
        </mxCell>
        <mxCell id="JlAPo6KQXhplnx53PEAh-4" value="- destination: DialogueNode" style="text;strokeColor=none;fillColor=none;align=left;verticalAlign=top;spacingLeft=4;spacingRight=4;overflow=hidden;rotatable=0;points=[[0,0.5],[1,0.5]];portConstraint=eastwest;" vertex="1" parent="JlAPo6KQXhplnx53PEAh-0">
          <mxGeometry y="52" width="200" height="26" as="geometry"/>
        </mxCell>
        <mxCell id="JlAPo6KQXhplnx53PEAh-2" value="" style="line;strokeWidth=1;fillColor=none;align=left;verticalAlign=middle;spacingTop=-1;spacingLeft=3;spacingRight=3;rotatable=0;labelPosition=right;points=[];portConstraint=eastwest;" vertex="1" parent="JlAPo6KQXhplnx53PEAh-0">
          <mxGeometry y="78" width="200" height="8" as="geometry"/>
        </mxCell>
        <mxCell id="JlAPo6KQXhplnx53PEAh-3" value="+ Show(): void" style="text;strokeColor=none;fillColor=none;align=left;verticalAlign=top;spacingLeft=4;spacingRight=4;overflow=hidden;rotatable=0;points=[[0,0.5],[1,0.5]];portConstraint=eastwest;" vertex="1" parent="JlAPo6KQXhplnx53PEAh-0">
          <mxGeometry y="86" width="200" height="26" as="geometry"/>
        </mxCell>
        <mxCell id="2dA1BYMv3t0Z6bowosAh-3" value="Item" style="swimlane;fontStyle=1;align=center;verticalAlign=top;childLayout=stackLayout;horizontal=1;startSize=26;horizontalStack=0;resizeParent=1;resizeParentMax=0;resizeLast=0;collapsible=1;marginBottom=0;fillColor=none;" vertex="1" parent="33f51LMxNeRnr3U8Xyu7-1">
          <mxGeometry x="480" y="624" width="200" height="86" as="geometry"/>
        </mxCell>
        <mxCell id="2dA1BYMv3t0Z6bowosAh-4" value="- name: String" style="text;strokeColor=none;fillColor=none;align=left;verticalAlign=top;spacingLeft=4;spacingRight=4;overflow=hidden;rotatable=0;points=[[0,0.5],[1,0.5]];portConstraint=eastwest;" vertex="1" parent="2dA1BYMv3t0Z6bowosAh-3">
          <mxGeometry y="26" width="200" height="26" as="geometry"/>
        </mxCell>
        <mxCell id="2dA1BYMv3t0Z6bowosAh-5" value="" style="line;strokeWidth=1;fillColor=none;align=left;verticalAlign=middle;spacingTop=-1;spacingLeft=3;spacingRight=3;rotatable=0;labelPosition=right;points=[];portConstraint=eastwest;" vertex="1" parent="2dA1BYMv3t0Z6bowosAh-3">
          <mxGeometry y="52" width="200" height="8" as="geometry"/>
        </mxCell>
        <mxCell id="2dA1BYMv3t0Z6bowosAh-6" value="+ Show(): void" style="text;strokeColor=none;fillColor=none;align=left;verticalAlign=top;spacingLeft=4;spacingRight=4;overflow=hidden;rotatable=0;points=[[0,0.5],[1,0.5]];portConstraint=eastwest;" vertex="1" parent="2dA1BYMv3t0Z6bowosAh-3">
          <mxGeometry y="60" width="200" height="26" as="geometry"/>
        </mxCell>
        <mxCell id="i9DVDKD4WKrfjqX2vJvM-0" value="Game" style="swimlane;fontStyle=1;align=center;verticalAlign=top;childLayout=stackLayout;horizontal=1;startSize=26;horizontalStack=0;resizeParent=1;resizeParentMax=0;resizeLast=0;collapsible=1;marginBottom=0;fillColor=none;" vertex="1" parent="33f51LMxNeRnr3U8Xyu7-1">
          <mxGeometry x="30" y="660" width="220" height="190" as="geometry"/>
        </mxCell>
        <mxCell id="i9DVDKD4WKrfjqX2vJvM-1" value="- rooms: List&lt;Room&gt;" style="text;strokeColor=none;fillColor=none;align=left;verticalAlign=top;spacingLeft=4;spacingRight=4;overflow=hidden;rotatable=0;points=[[0,0.5],[1,0.5]];portConstraint=eastwest;" vertex="1" parent="i9DVDKD4WKrfjqX2vJvM-0">
          <mxGeometry y="26" width="220" height="26" as="geometry"/>
        </mxCell>
        <mxCell id="i9DVDKD4WKrfjqX2vJvM-4" value="- characters: List&lt;Character&gt;" style="text;strokeColor=none;fillColor=none;align=left;verticalAlign=top;spacingLeft=4;spacingRight=4;overflow=hidden;rotatable=0;points=[[0,0.5],[1,0.5]];portConstraint=eastwest;" vertex="1" parent="i9DVDKD4WKrfjqX2vJvM-0">
          <mxGeometry y="52" width="220" height="26" as="geometry"/>
        </mxCell>
        <mxCell id="i9DVDKD4WKrfjqX2vJvM-5" value="- items: List&lt;Item&gt;" style="text;strokeColor=none;fillColor=none;align=left;verticalAlign=top;spacingLeft=4;spacingRight=4;overflow=hidden;rotatable=0;points=[[0,0.5],[1,0.5]];portConstraint=eastwest;" vertex="1" parent="i9DVDKD4WKrfjqX2vJvM-0">
          <mxGeometry y="78" width="220" height="26" as="geometry"/>
        </mxCell>
        <mxCell id="i9DVDKD4WKrfjqX2vJvM-6" value="- dialogueNodes: List&lt;DialogueNode&gt;" style="text;strokeColor=none;fillColor=none;align=left;verticalAlign=top;spacingLeft=4;spacingRight=4;overflow=hidden;rotatable=0;points=[[0,0.5],[1,0.5]];portConstraint=eastwest;" vertex="1" parent="i9DVDKD4WKrfjqX2vJvM-0">
          <mxGeometry y="104" width="220" height="26" as="geometry"/>
        </mxCell>
        <mxCell id="i9DVDKD4WKrfjqX2vJvM-7" value="- answers: List&lt;Answer&gt;" style="text;strokeColor=none;fillColor=none;align=left;verticalAlign=top;spacingLeft=4;spacingRight=4;overflow=hidden;rotatable=0;points=[[0,0.5],[1,0.5]];portConstraint=eastwest;" vertex="1" parent="i9DVDKD4WKrfjqX2vJvM-0">
          <mxGeometry y="130" width="220" height="26" as="geometry"/>
        </mxCell>
        <mxCell id="i9DVDKD4WKrfjqX2vJvM-2" value="" style="line;strokeWidth=1;fillColor=none;align=left;verticalAlign=middle;spacingTop=-1;spacingLeft=3;spacingRight=3;rotatable=0;labelPosition=right;points=[];portConstraint=eastwest;" vertex="1" parent="i9DVDKD4WKrfjqX2vJvM-0">
          <mxGeometry y="156" width="220" height="8" as="geometry"/>
        </mxCell>
        <mxCell id="i9DVDKD4WKrfjqX2vJvM-3" value="+ method(type): type" style="text;strokeColor=none;fillColor=none;align=left;verticalAlign=top;spacingLeft=4;spacingRight=4;overflow=hidden;rotatable=0;points=[[0,0.5],[1,0.5]];portConstraint=eastwest;" vertex="1" parent="i9DVDKD4WKrfjqX2vJvM-0">
          <mxGeometry y="164" width="220" height="26" as="geometry"/>
        </mxCell>
        <mxCell id="i9DVDKD4WKrfjqX2vJvM-17" style="edgeStyle=orthogonalEdgeStyle;rounded=0;orthogonalLoop=1;jettySize=auto;html=1;endArrow=block;endFill=0;endSize=10;entryX=0.698;entryY=1.004;entryDx=0;entryDy=0;entryPerimeter=0;" edge="1" parent="33f51LMxNeRnr3U8Xyu7-1" source="i9DVDKD4WKrfjqX2vJvM-8" target="tQlpxftsyER0sdIfuciN-1">
          <mxGeometry relative="1" as="geometry">
            <Array as="points">
              <mxPoint x="500" y="400"/>
              <mxPoint x="420" y="400"/>
            </Array>
          </mxGeometry>
        </mxCell>
        <mxCell id="i9DVDKD4WKrfjqX2vJvM-8" value="Player" style="swimlane;fontStyle=1;align=center;verticalAlign=top;childLayout=stackLayout;horizontal=1;startSize=26;horizontalStack=0;resizeParent=1;resizeParentMax=0;resizeLast=0;collapsible=1;marginBottom=0;fillColor=none;" vertex="1" parent="33f51LMxNeRnr3U8Xyu7-1">
          <mxGeometry x="400" y="440" width="200" height="112" as="geometry"/>
        </mxCell>
        <mxCell id="i9DVDKD4WKrfjqX2vJvM-9" value="- player: Player" style="text;strokeColor=none;fillColor=none;align=left;verticalAlign=top;spacingLeft=4;spacingRight=4;overflow=hidden;rotatable=0;points=[[0,0.5],[1,0.5]];portConstraint=eastwest;" vertex="1" parent="i9DVDKD4WKrfjqX2vJvM-8">
          <mxGeometry y="26" width="200" height="26" as="geometry"/>
        </mxCell>
        <mxCell id="i9DVDKD4WKrfjqX2vJvM-10" value="" style="line;strokeWidth=1;fillColor=none;align=left;verticalAlign=middle;spacingTop=-1;spacingLeft=3;spacingRight=3;rotatable=0;labelPosition=right;points=[];portConstraint=eastwest;" vertex="1" parent="i9DVDKD4WKrfjqX2vJvM-8">
          <mxGeometry y="52" width="200" height="8" as="geometry"/>
        </mxCell>
        <mxCell id="i9DVDKD4WKrfjqX2vJvM-11" value="- Player" style="text;strokeColor=none;fillColor=none;align=left;verticalAlign=top;spacingLeft=4;spacingRight=4;overflow=hidden;rotatable=0;points=[[0,0.5],[1,0.5]];portConstraint=eastwest;" vertex="1" parent="i9DVDKD4WKrfjqX2vJvM-8">
          <mxGeometry y="60" width="200" height="26" as="geometry"/>
        </mxCell>
        <mxCell id="i9DVDKD4WKrfjqX2vJvM-16" value="+ getPlayer(): Player" style="text;strokeColor=none;fillColor=none;align=left;verticalAlign=top;spacingLeft=4;spacingRight=4;overflow=hidden;rotatable=0;points=[[0,0.5],[1,0.5]];portConstraint=eastwest;" vertex="1" parent="i9DVDKD4WKrfjqX2vJvM-8">
          <mxGeometry y="86" width="200" height="26" as="geometry"/>
        </mxCell>
        <mxCell id="i9DVDKD4WKrfjqX2vJvM-19" value="&lt;&lt;enumeration&gt;&gt;&#xa;BehaviourType" style="swimlane;fontStyle=1;childLayout=stackLayout;horizontal=1;startSize=41;fillColor=none;horizontalStack=0;resizeParent=1;resizeParentMax=0;resizeLast=0;collapsible=1;marginBottom=0;" vertex="1" parent="33f51LMxNeRnr3U8Xyu7-1">
          <mxGeometry x="1280" y="42" width="120" height="93" as="geometry"/>
        </mxCell>
        <mxCell id="i9DVDKD4WKrfjqX2vJvM-20" value="Friendly" style="text;strokeColor=none;fillColor=none;align=left;verticalAlign=top;spacingLeft=4;spacingRight=4;overflow=hidden;rotatable=0;points=[[0,0.5],[1,0.5]];portConstraint=eastwest;" vertex="1" parent="i9DVDKD4WKrfjqX2vJvM-19">
          <mxGeometry y="41" width="120" height="26" as="geometry"/>
        </mxCell>
        <mxCell id="i9DVDKD4WKrfjqX2vJvM-21" value="Hostile" style="text;strokeColor=none;fillColor=none;align=left;verticalAlign=top;spacingLeft=4;spacingRight=4;overflow=hidden;rotatable=0;points=[[0,0.5],[1,0.5]];portConstraint=eastwest;" vertex="1" parent="i9DVDKD4WKrfjqX2vJvM-19">
          <mxGeometry y="67" width="120" height="26" as="geometry"/>
        </mxCell>
        <mxCell id="iELfJ4KeLtKs5X8M1AXc-0" value="&lt;&lt;enumeration&gt;&gt;&#xa;Direction" style="swimlane;fontStyle=1;childLayout=stackLayout;horizontal=1;startSize=41;fillColor=none;horizontalStack=0;resizeParent=1;resizeParentMax=0;resizeLast=0;collapsible=1;marginBottom=0;" vertex="1" parent="33f51LMxNeRnr3U8Xyu7-1">
          <mxGeometry x="1440" y="42" width="120" height="145" as="geometry"/>
        </mxCell>
        <mxCell id="iELfJ4KeLtKs5X8M1AXc-1" value="North" style="text;strokeColor=none;fillColor=none;align=left;verticalAlign=top;spacingLeft=4;spacingRight=4;overflow=hidden;rotatable=0;points=[[0,0.5],[1,0.5]];portConstraint=eastwest;" vertex="1" parent="iELfJ4KeLtKs5X8M1AXc-0">
          <mxGeometry y="41" width="120" height="26" as="geometry"/>
        </mxCell>
        <mxCell id="iELfJ4KeLtKs5X8M1AXc-2" value="East" style="text;strokeColor=none;fillColor=none;align=left;verticalAlign=top;spacingLeft=4;spacingRight=4;overflow=hidden;rotatable=0;points=[[0,0.5],[1,0.5]];portConstraint=eastwest;" vertex="1" parent="iELfJ4KeLtKs5X8M1AXc-0">
          <mxGeometry y="67" width="120" height="26" as="geometry"/>
        </mxCell>
        <mxCell id="iELfJ4KeLtKs5X8M1AXc-3" value="South" style="text;strokeColor=none;fillColor=none;align=left;verticalAlign=top;spacingLeft=4;spacingRight=4;overflow=hidden;rotatable=0;points=[[0,0.5],[1,0.5]];portConstraint=eastwest;" vertex="1" parent="iELfJ4KeLtKs5X8M1AXc-0">
          <mxGeometry y="93" width="120" height="26" as="geometry"/>
        </mxCell>
        <mxCell id="iELfJ4KeLtKs5X8M1AXc-4" value="West" style="text;strokeColor=none;fillColor=none;align=left;verticalAlign=top;spacingLeft=4;spacingRight=4;overflow=hidden;rotatable=0;points=[[0,0.5],[1,0.5]];portConstraint=eastwest;" vertex="1" parent="iELfJ4KeLtKs5X8M1AXc-0">
          <mxGeometry y="119" width="120" height="26" as="geometry"/>
        </mxCell>
        <mxCell id="kx0e7ypL-wyedrc5hit0-8" style="edgeStyle=orthogonalEdgeStyle;rounded=0;orthogonalLoop=1;jettySize=auto;html=1;endArrow=block;endFill=0;endSize=10;entryX=0.295;entryY=1.077;entryDx=0;entryDy=0;entryPerimeter=0;" edge="1" parent="33f51LMxNeRnr3U8Xyu7-1" source="kx0e7ypL-wyedrc5hit0-0" target="2dA1BYMv3t0Z6bowosAh-6">
          <mxGeometry relative="1" as="geometry">
            <Array as="points">
              <mxPoint x="460" y="744"/>
              <mxPoint x="539" y="744"/>
            </Array>
          </mxGeometry>
        </mxCell>
        <mxCell id="kx0e7ypL-wyedrc5hit0-0" value="Armor" style="swimlane;fontStyle=1;align=center;verticalAlign=top;childLayout=stackLayout;horizontal=1;startSize=26;horizontalStack=0;resizeParent=1;resizeParentMax=0;resizeLast=0;collapsible=1;marginBottom=0;fillColor=none;" vertex="1" parent="33f51LMxNeRnr3U8Xyu7-1">
          <mxGeometry x="360" y="764" width="200" height="86" as="geometry"/>
        </mxCell>
        <mxCell id="kx0e7ypL-wyedrc5hit0-1" value="-protection: int" style="text;strokeColor=none;fillColor=none;align=left;verticalAlign=top;spacingLeft=4;spacingRight=4;overflow=hidden;rotatable=0;points=[[0,0.5],[1,0.5]];portConstraint=eastwest;" vertex="1" parent="kx0e7ypL-wyedrc5hit0-0">
          <mxGeometry y="26" width="200" height="26" as="geometry"/>
        </mxCell>
        <mxCell id="kx0e7ypL-wyedrc5hit0-2" value="" style="line;strokeWidth=1;fillColor=none;align=left;verticalAlign=middle;spacingTop=-1;spacingLeft=3;spacingRight=3;rotatable=0;labelPosition=right;points=[];portConstraint=eastwest;" vertex="1" parent="kx0e7ypL-wyedrc5hit0-0">
          <mxGeometry y="52" width="200" height="8" as="geometry"/>
        </mxCell>
        <mxCell id="kx0e7ypL-wyedrc5hit0-3" value="+ method(type): type" style="text;strokeColor=none;fillColor=none;align=left;verticalAlign=top;spacingLeft=4;spacingRight=4;overflow=hidden;rotatable=0;points=[[0,0.5],[1,0.5]];portConstraint=eastwest;" vertex="1" parent="kx0e7ypL-wyedrc5hit0-0">
          <mxGeometry y="60" width="200" height="26" as="geometry"/>
        </mxCell>
        <mxCell id="kx0e7ypL-wyedrc5hit0-9" style="edgeStyle=orthogonalEdgeStyle;rounded=0;orthogonalLoop=1;jettySize=auto;html=1;entryX=0.705;entryY=1;entryDx=0;entryDy=0;entryPerimeter=0;endArrow=block;endFill=0;endSize=10;" edge="1" parent="33f51LMxNeRnr3U8Xyu7-1" source="kx0e7ypL-wyedrc5hit0-4" target="2dA1BYMv3t0Z6bowosAh-6">
          <mxGeometry relative="1" as="geometry">
            <Array as="points">
              <mxPoint x="700" y="744"/>
              <mxPoint x="621" y="744"/>
            </Array>
          </mxGeometry>
        </mxCell>
        <mxCell id="kx0e7ypL-wyedrc5hit0-4" value="Weapon" style="swimlane;fontStyle=1;align=center;verticalAlign=top;childLayout=stackLayout;horizontal=1;startSize=26;horizontalStack=0;resizeParent=1;resizeParentMax=0;resizeLast=0;collapsible=1;marginBottom=0;fillColor=none;" vertex="1" parent="33f51LMxNeRnr3U8Xyu7-1">
          <mxGeometry x="600" y="764" width="200" height="86" as="geometry"/>
        </mxCell>
        <mxCell id="kx0e7ypL-wyedrc5hit0-5" value="- damage: int" style="text;strokeColor=none;fillColor=none;align=left;verticalAlign=top;spacingLeft=4;spacingRight=4;overflow=hidden;rotatable=0;points=[[0,0.5],[1,0.5]];portConstraint=eastwest;" vertex="1" parent="kx0e7ypL-wyedrc5hit0-4">
          <mxGeometry y="26" width="200" height="26" as="geometry"/>
        </mxCell>
        <mxCell id="kx0e7ypL-wyedrc5hit0-6" value="" style="line;strokeWidth=1;fillColor=none;align=left;verticalAlign=middle;spacingTop=-1;spacingLeft=3;spacingRight=3;rotatable=0;labelPosition=right;points=[];portConstraint=eastwest;" vertex="1" parent="kx0e7ypL-wyedrc5hit0-4">
          <mxGeometry y="52" width="200" height="8" as="geometry"/>
        </mxCell>
        <mxCell id="kx0e7ypL-wyedrc5hit0-7" value="+ method(type): type" style="text;strokeColor=none;fillColor=none;align=left;verticalAlign=top;spacingLeft=4;spacingRight=4;overflow=hidden;rotatable=0;points=[[0,0.5],[1,0.5]];portConstraint=eastwest;" vertex="1" parent="kx0e7ypL-wyedrc5hit0-4">
          <mxGeometry y="60" width="200" height="26" as="geometry"/>
        </mxCell>
      </root>
    </mxGraphModel>
  </diagram>
  <diagram id="iVmedgmoXUwfqzvKgUCb" name="Activities">
    <mxGraphModel dx="1360" dy="834" grid="1" gridSize="10" guides="1" tooltips="1" connect="1" arrows="1" fold="1" page="1" pageScale="1" pageWidth="827" pageHeight="1169" math="0" shadow="0">
      <root>
        <mxCell id="qI_F97sDJoIzJ8Fcwjjt-0"/>
        <mxCell id="qI_F97sDJoIzJ8Fcwjjt-1" parent="qI_F97sDJoIzJ8Fcwjjt-0"/>
        <mxCell id="x0B6jbQSezUy4VW3onh3-7" value="" style="rounded=0;whiteSpace=wrap;html=1;fillColor=none;fontSize=12;" vertex="1" parent="qI_F97sDJoIzJ8Fcwjjt-1">
          <mxGeometry x="900" y="800" width="660" height="260" as="geometry"/>
        </mxCell>
        <mxCell id="0F-RVmH0eigcLp2u_qcq-48" value="" style="rounded=0;whiteSpace=wrap;html=1;fillColor=none;fontSize=12;" vertex="1" parent="qI_F97sDJoIzJ8Fcwjjt-1">
          <mxGeometry x="1740" y="260" width="500" height="200" as="geometry"/>
        </mxCell>
        <mxCell id="0F-RVmH0eigcLp2u_qcq-11" value="" style="rounded=0;whiteSpace=wrap;html=1;fillColor=none;fontSize=12;" vertex="1" parent="qI_F97sDJoIzJ8Fcwjjt-1">
          <mxGeometry x="1700" y="20" width="480" height="200" as="geometry"/>
        </mxCell>
        <mxCell id="gLG8VtLL_uXr13QGNN9T-27" value="" style="rounded=0;whiteSpace=wrap;html=1;fillColor=none;fontSize=12;" vertex="1" parent="qI_F97sDJoIzJ8Fcwjjt-1">
          <mxGeometry x="860" y="640" width="440" height="120" as="geometry"/>
        </mxCell>
        <mxCell id="gLG8VtLL_uXr13QGNN9T-15" value="" style="rounded=0;whiteSpace=wrap;html=1;fillColor=none;fontSize=12;" vertex="1" parent="qI_F97sDJoIzJ8Fcwjjt-1">
          <mxGeometry x="900" y="20" width="640" height="280" as="geometry"/>
        </mxCell>
        <mxCell id="ClcdgU5FPO73r0vOtbqK-3" value="" style="rounded=0;whiteSpace=wrap;html=1;fillColor=none;fontSize=12;" vertex="1" parent="qI_F97sDJoIzJ8Fcwjjt-1">
          <mxGeometry x="1400" y="340" width="200" height="120" as="geometry"/>
        </mxCell>
        <mxCell id="kcM3ouWORE6v14oSfeZb-22" value="" style="rounded=0;whiteSpace=wrap;html=1;fillColor=none;fontSize=12;" vertex="1" parent="qI_F97sDJoIzJ8Fcwjjt-1">
          <mxGeometry x="860" y="340" width="500" height="260" as="geometry"/>
        </mxCell>
        <mxCell id="8EFpMuq1cpKkFvQHzwaM-26" value="" style="rounded=0;whiteSpace=wrap;html=1;fillColor=none;fontSize=12;" parent="qI_F97sDJoIzJ8Fcwjjt-1" vertex="1">
          <mxGeometry x="60" y="300" width="720" height="840" as="geometry"/>
        </mxCell>
        <mxCell id="NXViFqLxGMdbV16NTgtc-21" value="" style="rounded=0;whiteSpace=wrap;html=1;fillColor=none;fontSize=12;" parent="qI_F97sDJoIzJ8Fcwjjt-1" vertex="1">
          <mxGeometry x="60" y="20" width="720" height="240" as="geometry"/>
        </mxCell>
        <mxCell id="qI_F97sDJoIzJ8Fcwjjt-2" value="&lt;b&gt;Main()&lt;/b&gt;" style="text;html=1;strokeColor=none;fillColor=none;align=center;verticalAlign=middle;whiteSpace=wrap;rounded=0;fontSize=16;" parent="qI_F97sDJoIzJ8Fcwjjt-1" vertex="1">
          <mxGeometry x="60" y="20" width="80" height="40" as="geometry"/>
        </mxCell>
        <mxCell id="NXViFqLxGMdbV16NTgtc-23" style="edgeStyle=none;rounded=0;orthogonalLoop=1;jettySize=auto;html=1;endArrow=classic;endFill=1;fontSize=12;" parent="qI_F97sDJoIzJ8Fcwjjt-1" source="qI_F97sDJoIzJ8Fcwjjt-3" target="NXViFqLxGMdbV16NTgtc-17" edge="1">
          <mxGeometry relative="1" as="geometry"/>
        </mxCell>
        <mxCell id="qI_F97sDJoIzJ8Fcwjjt-3" value="" style="ellipse;html=1;shape=startState;fillColor=#000000;strokeColor=#ff0000;fontSize=16;" parent="qI_F97sDJoIzJ8Fcwjjt-1" vertex="1">
          <mxGeometry x="80" y="120" width="40" height="40" as="geometry"/>
        </mxCell>
        <mxCell id="qI_F97sDJoIzJ8Fcwjjt-9" style="rounded=0;orthogonalLoop=1;jettySize=auto;html=1;exitX=1;exitY=0;exitDx=0;exitDy=0;entryX=0;entryY=0.5;entryDx=0;entryDy=0;entryPerimeter=0;fontSize=11;endArrow=none;endFill=0;dashed=1;" parent="qI_F97sDJoIzJ8Fcwjjt-1" source="qI_F97sDJoIzJ8Fcwjjt-5" target="qI_F97sDJoIzJ8Fcwjjt-7" edge="1">
          <mxGeometry relative="1" as="geometry"/>
        </mxCell>
        <mxCell id="qI_F97sDJoIzJ8Fcwjjt-15" style="edgeStyle=none;rounded=0;orthogonalLoop=1;jettySize=auto;html=1;endArrow=classic;endFill=1;fontSize=11;" parent="qI_F97sDJoIzJ8Fcwjjt-1" source="qI_F97sDJoIzJ8Fcwjjt-5" target="qI_F97sDJoIzJ8Fcwjjt-13" edge="1">
          <mxGeometry relative="1" as="geometry"/>
        </mxCell>
        <mxCell id="qI_F97sDJoIzJ8Fcwjjt-5" value="&lt;font style=&quot;font-size: 12px;&quot;&gt;Show Main Menu&lt;/font&gt;" style="rounded=1;whiteSpace=wrap;html=1;fontSize=12;" parent="qI_F97sDJoIzJ8Fcwjjt-1" vertex="1">
          <mxGeometry x="240" y="120" width="80" height="40" as="geometry"/>
        </mxCell>
        <mxCell id="NXViFqLxGMdbV16NTgtc-2" style="edgeStyle=none;rounded=0;orthogonalLoop=1;jettySize=auto;html=1;endArrow=classic;endFill=1;fontSize=12;" parent="qI_F97sDJoIzJ8Fcwjjt-1" source="qI_F97sDJoIzJ8Fcwjjt-6" target="NXViFqLxGMdbV16NTgtc-1" edge="1">
          <mxGeometry relative="1" as="geometry"/>
        </mxCell>
        <mxCell id="qI_F97sDJoIzJ8Fcwjjt-6" value="LoadGameFile &lt;b style=&quot;font-size: 12px;&quot;&gt;rh&lt;/b&gt;" style="rounded=1;whiteSpace=wrap;html=1;fontSize=12;" parent="qI_F97sDJoIzJ8Fcwjjt-1" vertex="1">
          <mxGeometry x="580" y="200" width="80" height="40" as="geometry"/>
        </mxCell>
        <mxCell id="qI_F97sDJoIzJ8Fcwjjt-7" value="Main Menu&lt;br style=&quot;font-size: 12px&quot;&gt;1. Play Game&lt;br style=&quot;font-size: 12px&quot;&gt;2. How to Play&lt;br&gt;3. Exit" style="shape=note;whiteSpace=wrap;html=1;size=14;verticalAlign=top;align=left;spacingTop=-6;fontSize=12;" parent="qI_F97sDJoIzJ8Fcwjjt-1" vertex="1">
          <mxGeometry x="180" y="180" width="100" height="60" as="geometry"/>
        </mxCell>
        <mxCell id="qI_F97sDJoIzJ8Fcwjjt-21" style="edgeStyle=none;rounded=0;orthogonalLoop=1;jettySize=auto;html=1;endArrow=classic;endFill=1;fontSize=11;" parent="qI_F97sDJoIzJ8Fcwjjt-1" source="qI_F97sDJoIzJ8Fcwjjt-10" target="qI_F97sDJoIzJ8Fcwjjt-20" edge="1">
          <mxGeometry relative="1" as="geometry"/>
        </mxCell>
        <mxCell id="qI_F97sDJoIzJ8Fcwjjt-22" value="[3]" style="text;html=1;align=center;verticalAlign=middle;resizable=0;points=[];labelBackgroundColor=#ffffff;fontSize=12;" parent="qI_F97sDJoIzJ8Fcwjjt-21" vertex="1" connectable="0">
          <mxGeometry x="0.3" y="-2" relative="1" as="geometry">
            <mxPoint x="-12" y="-2" as="offset"/>
          </mxGeometry>
        </mxCell>
        <mxCell id="NXViFqLxGMdbV16NTgtc-13" style="edgeStyle=none;rounded=0;orthogonalLoop=1;jettySize=auto;html=1;endArrow=classic;endFill=1;fontSize=12;" parent="qI_F97sDJoIzJ8Fcwjjt-1" source="qI_F97sDJoIzJ8Fcwjjt-10" target="qI_F97sDJoIzJ8Fcwjjt-6" edge="1">
          <mxGeometry relative="1" as="geometry"/>
        </mxCell>
        <mxCell id="NXViFqLxGMdbV16NTgtc-14" value="[1]" style="text;html=1;align=center;verticalAlign=middle;resizable=0;points=[];labelBackgroundColor=#ffffff;fontSize=12;" parent="NXViFqLxGMdbV16NTgtc-13" vertex="1" connectable="0">
          <mxGeometry x="0.4286" relative="1" as="geometry">
            <mxPoint y="-19" as="offset"/>
          </mxGeometry>
        </mxCell>
        <mxCell id="NXViFqLxGMdbV16NTgtc-16" style="edgeStyle=none;rounded=0;orthogonalLoop=1;jettySize=auto;html=1;endArrow=classic;endFill=1;fontSize=12;" parent="qI_F97sDJoIzJ8Fcwjjt-1" source="qI_F97sDJoIzJ8Fcwjjt-10" target="NXViFqLxGMdbV16NTgtc-15" edge="1">
          <mxGeometry relative="1" as="geometry"/>
        </mxCell>
        <mxCell id="NXViFqLxGMdbV16NTgtc-20" value="[2]" style="text;html=1;align=center;verticalAlign=middle;resizable=0;points=[];labelBackgroundColor=#ffffff;fontSize=12;" parent="NXViFqLxGMdbV16NTgtc-16" vertex="1" connectable="0">
          <mxGeometry x="-0.2222" y="1" relative="1" as="geometry">
            <mxPoint as="offset"/>
          </mxGeometry>
        </mxCell>
        <mxCell id="qI_F97sDJoIzJ8Fcwjjt-10" value="" style="rhombus;whiteSpace=wrap;html=1;fontSize=11;" parent="qI_F97sDJoIzJ8Fcwjjt-1" vertex="1">
          <mxGeometry x="600" y="120" width="40" height="40" as="geometry"/>
        </mxCell>
        <mxCell id="qI_F97sDJoIzJ8Fcwjjt-17" style="edgeStyle=none;rounded=0;orthogonalLoop=1;jettySize=auto;html=1;endArrow=classic;endFill=1;fontSize=11;" parent="qI_F97sDJoIzJ8Fcwjjt-1" source="qI_F97sDJoIzJ8Fcwjjt-13" target="qI_F97sDJoIzJ8Fcwjjt-16" edge="1">
          <mxGeometry relative="1" as="geometry"/>
        </mxCell>
        <mxCell id="qI_F97sDJoIzJ8Fcwjjt-13" value="Read Player Input" style="rounded=1;whiteSpace=wrap;html=1;fontSize=12;" parent="qI_F97sDJoIzJ8Fcwjjt-1" vertex="1">
          <mxGeometry x="360" y="120" width="80" height="40" as="geometry"/>
        </mxCell>
        <mxCell id="qI_F97sDJoIzJ8Fcwjjt-19" style="edgeStyle=none;rounded=0;orthogonalLoop=1;jettySize=auto;html=1;endArrow=classic;endFill=1;fontSize=11;" parent="qI_F97sDJoIzJ8Fcwjjt-1" source="qI_F97sDJoIzJ8Fcwjjt-16" target="qI_F97sDJoIzJ8Fcwjjt-10" edge="1">
          <mxGeometry relative="1" as="geometry"/>
        </mxCell>
        <mxCell id="qI_F97sDJoIzJ8Fcwjjt-16" value="Player Input" style="rounded=0;whiteSpace=wrap;html=1;fontSize=12;" parent="qI_F97sDJoIzJ8Fcwjjt-1" vertex="1">
          <mxGeometry x="480" y="120" width="80" height="40" as="geometry"/>
        </mxCell>
        <mxCell id="qI_F97sDJoIzJ8Fcwjjt-20" value="" style="ellipse;html=1;shape=endState;fillColor=#000000;strokeColor=#ff0000;fontSize=11;" parent="qI_F97sDJoIzJ8Fcwjjt-1" vertex="1">
          <mxGeometry x="720" y="120" width="40" height="40" as="geometry"/>
        </mxCell>
        <mxCell id="qI_F97sDJoIzJ8Fcwjjt-26" value="GameLoop&amp;nbsp;&lt;b style=&quot;font-size: 12px;&quot;&gt;rh&lt;/b&gt;" style="rounded=1;whiteSpace=wrap;html=1;fontSize=12;" parent="qI_F97sDJoIzJ8Fcwjjt-1" vertex="1">
          <mxGeometry x="320" y="200" width="80" height="40" as="geometry"/>
        </mxCell>
        <mxCell id="NXViFqLxGMdbV16NTgtc-0" value="&lt;b&gt;GameLoop()&lt;/b&gt;" style="text;html=1;strokeColor=none;fillColor=none;align=center;verticalAlign=middle;whiteSpace=wrap;rounded=0;fontSize=16;" parent="qI_F97sDJoIzJ8Fcwjjt-1" vertex="1">
          <mxGeometry x="60" y="300" width="120" height="40" as="geometry"/>
        </mxCell>
        <mxCell id="NXViFqLxGMdbV16NTgtc-3" style="edgeStyle=none;rounded=0;orthogonalLoop=1;jettySize=auto;html=1;endArrow=classic;endFill=1;fontSize=12;" parent="qI_F97sDJoIzJ8Fcwjjt-1" source="NXViFqLxGMdbV16NTgtc-1" target="qI_F97sDJoIzJ8Fcwjjt-26" edge="1">
          <mxGeometry relative="1" as="geometry"/>
        </mxCell>
        <mxCell id="NXViFqLxGMdbV16NTgtc-1" value="Game" style="rounded=0;whiteSpace=wrap;html=1;fillColor=#ffffff;fontSize=12;" parent="qI_F97sDJoIzJ8Fcwjjt-1" vertex="1">
          <mxGeometry x="440" y="200" width="80" height="40" as="geometry"/>
        </mxCell>
        <mxCell id="NXViFqLxGMdbV16NTgtc-29" style="edgeStyle=none;rounded=0;orthogonalLoop=1;jettySize=auto;html=1;endArrow=classic;endFill=1;fontSize=12;" parent="qI_F97sDJoIzJ8Fcwjjt-1" source="NXViFqLxGMdbV16NTgtc-4" target="NXViFqLxGMdbV16NTgtc-28" edge="1">
          <mxGeometry relative="1" as="geometry"/>
        </mxCell>
        <mxCell id="NXViFqLxGMdbV16NTgtc-4" value="Game" style="rounded=0;whiteSpace=wrap;html=1;fillColor=#ffffff;fontSize=12;" parent="qI_F97sDJoIzJ8Fcwjjt-1" vertex="1">
          <mxGeometry x="20" y="360" width="80" height="40" as="geometry"/>
        </mxCell>
        <mxCell id="NXViFqLxGMdbV16NTgtc-8" style="edgeStyle=none;rounded=0;orthogonalLoop=1;jettySize=auto;html=1;endArrow=classic;endFill=1;fontSize=12;" parent="qI_F97sDJoIzJ8Fcwjjt-1" source="NXViFqLxGMdbV16NTgtc-5" target="NXViFqLxGMdbV16NTgtc-6" edge="1">
          <mxGeometry relative="1" as="geometry"/>
        </mxCell>
        <mxCell id="NXViFqLxGMdbV16NTgtc-5" value="Get Current Room" style="rounded=1;whiteSpace=wrap;html=1;fillColor=#ffffff;fontSize=12;" parent="qI_F97sDJoIzJ8Fcwjjt-1" vertex="1">
          <mxGeometry x="280" y="360" width="80" height="40" as="geometry"/>
        </mxCell>
        <mxCell id="NXViFqLxGMdbV16NTgtc-42" style="edgeStyle=none;rounded=0;orthogonalLoop=1;jettySize=auto;html=1;endArrow=classic;endFill=1;fontSize=12;" parent="qI_F97sDJoIzJ8Fcwjjt-1" source="NXViFqLxGMdbV16NTgtc-6" target="NXViFqLxGMdbV16NTgtc-41" edge="1">
          <mxGeometry relative="1" as="geometry"/>
        </mxCell>
        <mxCell id="NXViFqLxGMdbV16NTgtc-6" value="current room" style="rounded=0;whiteSpace=wrap;html=1;fillColor=#ffffff;fontSize=12;" parent="qI_F97sDJoIzJ8Fcwjjt-1" vertex="1">
          <mxGeometry x="400" y="360" width="80" height="40" as="geometry"/>
        </mxCell>
        <mxCell id="NXViFqLxGMdbV16NTgtc-36" style="edgeStyle=none;rounded=0;orthogonalLoop=1;jettySize=auto;html=1;endArrow=classic;endFill=1;fontSize=12;" parent="qI_F97sDJoIzJ8Fcwjjt-1" source="NXViFqLxGMdbV16NTgtc-9" target="NXViFqLxGMdbV16NTgtc-35" edge="1">
          <mxGeometry relative="1" as="geometry"/>
        </mxCell>
        <mxCell id="NXViFqLxGMdbV16NTgtc-9" value="current room Show &lt;b&gt;rh&lt;/b&gt;" style="rounded=1;whiteSpace=wrap;html=1;fillColor=#ffffff;fontSize=12;" parent="qI_F97sDJoIzJ8Fcwjjt-1" vertex="1">
          <mxGeometry x="400" y="480" width="80" height="40" as="geometry"/>
        </mxCell>
        <mxCell id="NXViFqLxGMdbV16NTgtc-19" style="edgeStyle=none;rounded=0;orthogonalLoop=1;jettySize=auto;html=1;endArrow=classic;endFill=1;fontSize=12;" parent="qI_F97sDJoIzJ8Fcwjjt-1" source="NXViFqLxGMdbV16NTgtc-15" target="NXViFqLxGMdbV16NTgtc-17" edge="1">
          <mxGeometry relative="1" as="geometry">
            <Array as="points">
              <mxPoint x="180" y="62"/>
            </Array>
          </mxGeometry>
        </mxCell>
        <mxCell id="NXViFqLxGMdbV16NTgtc-15" value="Show Commands &lt;b&gt;rh&lt;/b&gt;" style="rounded=1;whiteSpace=wrap;html=1;fillColor=#ffffff;fontSize=12;" parent="qI_F97sDJoIzJ8Fcwjjt-1" vertex="1">
          <mxGeometry x="580" y="40" width="80" height="40" as="geometry"/>
        </mxCell>
        <mxCell id="NXViFqLxGMdbV16NTgtc-22" style="edgeStyle=none;rounded=0;orthogonalLoop=1;jettySize=auto;html=1;endArrow=classic;endFill=1;fontSize=12;" parent="qI_F97sDJoIzJ8Fcwjjt-1" source="NXViFqLxGMdbV16NTgtc-17" target="qI_F97sDJoIzJ8Fcwjjt-5" edge="1">
          <mxGeometry relative="1" as="geometry"/>
        </mxCell>
        <mxCell id="NXViFqLxGMdbV16NTgtc-17" value="" style="rhombus;whiteSpace=wrap;html=1;fillColor=none;fontSize=12;" parent="qI_F97sDJoIzJ8Fcwjjt-1" vertex="1">
          <mxGeometry x="160" y="120" width="40" height="40" as="geometry"/>
        </mxCell>
        <mxCell id="8EFpMuq1cpKkFvQHzwaM-25" style="edgeStyle=none;rounded=0;orthogonalLoop=1;jettySize=auto;html=1;endArrow=classic;endFill=1;fontSize=12;" parent="qI_F97sDJoIzJ8Fcwjjt-1" source="NXViFqLxGMdbV16NTgtc-24" target="8EFpMuq1cpKkFvQHzwaM-19" edge="1">
          <mxGeometry relative="1" as="geometry"/>
        </mxCell>
        <mxCell id="NXViFqLxGMdbV16NTgtc-24" value="Read player input" style="rounded=1;whiteSpace=wrap;html=1;fillColor=#ffffff;fontSize=12;" parent="qI_F97sDJoIzJ8Fcwjjt-1" vertex="1">
          <mxGeometry x="400" y="620" width="80" height="40" as="geometry"/>
        </mxCell>
        <mxCell id="8EFpMuq1cpKkFvQHzwaM-23" style="edgeStyle=none;rounded=0;orthogonalLoop=1;jettySize=auto;html=1;endArrow=classic;endFill=1;fontSize=12;" parent="qI_F97sDJoIzJ8Fcwjjt-1" source="NXViFqLxGMdbV16NTgtc-25" target="8EFpMuq1cpKkFvQHzwaM-20" edge="1">
          <mxGeometry relative="1" as="geometry"/>
        </mxCell>
        <mxCell id="NXViFqLxGMdbV16NTgtc-25" value="command,&amp;nbsp; option" style="rounded=0;whiteSpace=wrap;html=1;fillColor=#ffffff;fontSize=12;" parent="qI_F97sDJoIzJ8Fcwjjt-1" vertex="1">
          <mxGeometry x="400" y="760" width="80" height="40" as="geometry"/>
        </mxCell>
        <mxCell id="NXViFqLxGMdbV16NTgtc-30" style="edgeStyle=none;rounded=0;orthogonalLoop=1;jettySize=auto;html=1;endArrow=classic;endFill=1;fontSize=12;" parent="qI_F97sDJoIzJ8Fcwjjt-1" source="NXViFqLxGMdbV16NTgtc-28" target="NXViFqLxGMdbV16NTgtc-5" edge="1">
          <mxGeometry relative="1" as="geometry"/>
        </mxCell>
        <mxCell id="NXViFqLxGMdbV16NTgtc-28" value="" style="rhombus;whiteSpace=wrap;html=1;fontSize=11;fillColor=#ffffff;" parent="qI_F97sDJoIzJ8Fcwjjt-1" vertex="1">
          <mxGeometry x="120" y="360" width="40" height="40" as="geometry"/>
        </mxCell>
        <mxCell id="NXViFqLxGMdbV16NTgtc-34" style="edgeStyle=none;rounded=0;orthogonalLoop=1;jettySize=auto;html=1;endArrow=classic;endFill=1;fontSize=12;" parent="qI_F97sDJoIzJ8Fcwjjt-1" source="NXViFqLxGMdbV16NTgtc-31" target="NXViFqLxGMdbV16NTgtc-33" edge="1">
          <mxGeometry relative="1" as="geometry">
            <Array as="points">
              <mxPoint x="520" y="880"/>
            </Array>
          </mxGeometry>
        </mxCell>
        <mxCell id="NXViFqLxGMdbV16NTgtc-39" value="[commands]" style="text;html=1;align=center;verticalAlign=middle;resizable=0;points=[];labelBackgroundColor=#ffffff;fontSize=12;" parent="NXViFqLxGMdbV16NTgtc-34" vertex="1" connectable="0">
          <mxGeometry x="-0.5" relative="1" as="geometry">
            <mxPoint x="55.36" y="-57.68" as="offset"/>
          </mxGeometry>
        </mxCell>
        <mxCell id="R0s2jqCqZAeIJGEhFhbV-9" style="edgeStyle=none;rounded=0;orthogonalLoop=1;jettySize=auto;html=1;endArrow=classic;endFill=1;fontSize=12;" parent="qI_F97sDJoIzJ8Fcwjjt-1" source="NXViFqLxGMdbV16NTgtc-31" target="R0s2jqCqZAeIJGEhFhbV-5" edge="1">
          <mxGeometry relative="1" as="geometry">
            <Array as="points"/>
          </mxGeometry>
        </mxCell>
        <mxCell id="R0s2jqCqZAeIJGEhFhbV-11" value="[move]" style="text;html=1;align=center;verticalAlign=middle;resizable=0;points=[];labelBackgroundColor=#ffffff;fontSize=12;" parent="R0s2jqCqZAeIJGEhFhbV-9" vertex="1" connectable="0">
          <mxGeometry x="0.2766" y="3" relative="1" as="geometry">
            <mxPoint as="offset"/>
          </mxGeometry>
        </mxCell>
        <mxCell id="R0s2jqCqZAeIJGEhFhbV-12" style="edgeStyle=none;rounded=0;orthogonalLoop=1;jettySize=auto;html=1;endArrow=classic;endFill=1;fontSize=12;" parent="qI_F97sDJoIzJ8Fcwjjt-1" source="NXViFqLxGMdbV16NTgtc-31" target="R0s2jqCqZAeIJGEhFhbV-0" edge="1">
          <mxGeometry relative="1" as="geometry"/>
        </mxCell>
        <mxCell id="R0s2jqCqZAeIJGEhFhbV-19" value="[drop]" style="text;html=1;align=center;verticalAlign=middle;resizable=0;points=[];labelBackgroundColor=#ffffff;fontSize=12;" parent="R0s2jqCqZAeIJGEhFhbV-12" vertex="1" connectable="0">
          <mxGeometry x="0.1575" relative="1" as="geometry">
            <mxPoint as="offset"/>
          </mxGeometry>
        </mxCell>
        <mxCell id="8EFpMuq1cpKkFvQHzwaM-5" style="edgeStyle=none;rounded=0;orthogonalLoop=1;jettySize=auto;html=1;endArrow=classic;endFill=1;fontSize=12;" parent="qI_F97sDJoIzJ8Fcwjjt-1" source="NXViFqLxGMdbV16NTgtc-31" target="8EFpMuq1cpKkFvQHzwaM-3" edge="1">
          <mxGeometry relative="1" as="geometry"/>
        </mxCell>
        <mxCell id="8EFpMuq1cpKkFvQHzwaM-6" value="[attack]" style="text;html=1;align=center;verticalAlign=middle;resizable=0;points=[];labelBackgroundColor=#ffffff;fontSize=12;" parent="8EFpMuq1cpKkFvQHzwaM-5" vertex="1" connectable="0">
          <mxGeometry x="-0.2371" y="3" relative="1" as="geometry">
            <mxPoint x="-21" y="-3" as="offset"/>
          </mxGeometry>
        </mxCell>
        <mxCell id="8EFpMuq1cpKkFvQHzwaM-7" style="edgeStyle=none;rounded=0;orthogonalLoop=1;jettySize=auto;html=1;endArrow=classic;endFill=1;fontSize=12;" parent="qI_F97sDJoIzJ8Fcwjjt-1" source="NXViFqLxGMdbV16NTgtc-31" target="8EFpMuq1cpKkFvQHzwaM-4" edge="1">
          <mxGeometry relative="1" as="geometry">
            <Array as="points">
              <mxPoint x="360" y="880"/>
            </Array>
          </mxGeometry>
        </mxCell>
        <mxCell id="8EFpMuq1cpKkFvQHzwaM-8" value="[talk]" style="text;html=1;align=center;verticalAlign=middle;resizable=0;points=[];labelBackgroundColor=#ffffff;fontSize=12;" parent="8EFpMuq1cpKkFvQHzwaM-7" vertex="1" connectable="0">
          <mxGeometry x="0.2398" y="4" relative="1" as="geometry">
            <mxPoint x="-10.4" y="-29.75" as="offset"/>
          </mxGeometry>
        </mxCell>
        <mxCell id="8EFpMuq1cpKkFvQHzwaM-13" style="edgeStyle=none;rounded=0;orthogonalLoop=1;jettySize=auto;html=1;endArrow=classic;endFill=1;fontSize=12;" parent="qI_F97sDJoIzJ8Fcwjjt-1" source="NXViFqLxGMdbV16NTgtc-31" target="NXViFqLxGMdbV16NTgtc-41" edge="1">
          <mxGeometry relative="1" as="geometry">
            <Array as="points">
              <mxPoint x="200" y="924"/>
              <mxPoint x="200" y="442"/>
            </Array>
          </mxGeometry>
        </mxCell>
        <mxCell id="8EFpMuq1cpKkFvQHzwaM-14" value="[look]" style="text;html=1;align=center;verticalAlign=middle;resizable=0;points=[];labelBackgroundColor=#ffffff;fontSize=12;" parent="8EFpMuq1cpKkFvQHzwaM-13" vertex="1" connectable="0">
          <mxGeometry x="-0.7009" y="-3" relative="1" as="geometry">
            <mxPoint as="offset"/>
          </mxGeometry>
        </mxCell>
        <mxCell id="8EFpMuq1cpKkFvQHzwaM-16" style="edgeStyle=none;rounded=0;orthogonalLoop=1;jettySize=auto;html=1;endArrow=classic;endFill=1;fontSize=12;" parent="qI_F97sDJoIzJ8Fcwjjt-1" source="NXViFqLxGMdbV16NTgtc-31" target="8EFpMuq1cpKkFvQHzwaM-15" edge="1">
          <mxGeometry relative="1" as="geometry"/>
        </mxCell>
        <mxCell id="8EFpMuq1cpKkFvQHzwaM-17" value="[quit]" style="text;html=1;align=center;verticalAlign=middle;resizable=0;points=[];labelBackgroundColor=#ffffff;fontSize=12;" parent="8EFpMuq1cpKkFvQHzwaM-16" vertex="1" connectable="0">
          <mxGeometry x="-0.2003" y="2" relative="1" as="geometry">
            <mxPoint as="offset"/>
          </mxGeometry>
        </mxCell>
        <mxCell id="NXViFqLxGMdbV16NTgtc-31" value="" style="rhombus;whiteSpace=wrap;html=1;fillColor=#ffffff;fontSize=12;" parent="qI_F97sDJoIzJ8Fcwjjt-1" vertex="1">
          <mxGeometry x="420" y="900" width="40" height="40" as="geometry"/>
        </mxCell>
        <mxCell id="NXViFqLxGMdbV16NTgtc-38" style="edgeStyle=none;rounded=0;orthogonalLoop=1;jettySize=auto;html=1;endArrow=classic;endFill=1;fontSize=12;" parent="qI_F97sDJoIzJ8Fcwjjt-1" source="NXViFqLxGMdbV16NTgtc-33" target="NXViFqLxGMdbV16NTgtc-35" edge="1">
          <mxGeometry relative="1" as="geometry">
            <Array as="points">
              <mxPoint x="520" y="620"/>
            </Array>
          </mxGeometry>
        </mxCell>
        <mxCell id="NXViFqLxGMdbV16NTgtc-33" value="Show&lt;br&gt;Commands &lt;b&gt;rh&lt;/b&gt;" style="rounded=1;whiteSpace=wrap;html=1;fillColor=#ffffff;fontSize=12;" parent="qI_F97sDJoIzJ8Fcwjjt-1" vertex="1">
          <mxGeometry x="520" y="780" width="80" height="40" as="geometry"/>
        </mxCell>
        <mxCell id="NXViFqLxGMdbV16NTgtc-37" style="edgeStyle=none;rounded=0;orthogonalLoop=1;jettySize=auto;html=1;endArrow=classic;endFill=1;fontSize=12;" parent="qI_F97sDJoIzJ8Fcwjjt-1" source="NXViFqLxGMdbV16NTgtc-35" target="NXViFqLxGMdbV16NTgtc-24" edge="1">
          <mxGeometry relative="1" as="geometry"/>
        </mxCell>
        <mxCell id="NXViFqLxGMdbV16NTgtc-35" value="" style="rhombus;whiteSpace=wrap;html=1;fillColor=#ffffff;fontSize=12;" parent="qI_F97sDJoIzJ8Fcwjjt-1" vertex="1">
          <mxGeometry x="420" y="540" width="40" height="40" as="geometry"/>
        </mxCell>
        <mxCell id="NXViFqLxGMdbV16NTgtc-45" style="edgeStyle=none;rounded=0;orthogonalLoop=1;jettySize=auto;html=1;endArrow=classic;endFill=1;fontSize=12;" parent="qI_F97sDJoIzJ8Fcwjjt-1" source="NXViFqLxGMdbV16NTgtc-41" target="NXViFqLxGMdbV16NTgtc-9" edge="1">
          <mxGeometry relative="1" as="geometry"/>
        </mxCell>
        <mxCell id="NXViFqLxGMdbV16NTgtc-41" value="" style="rhombus;whiteSpace=wrap;html=1;fillColor=#ffffff;fontSize=12;" parent="qI_F97sDJoIzJ8Fcwjjt-1" vertex="1">
          <mxGeometry x="420" y="420" width="40" height="40" as="geometry"/>
        </mxCell>
        <mxCell id="R0s2jqCqZAeIJGEhFhbV-15" style="edgeStyle=none;rounded=0;orthogonalLoop=1;jettySize=auto;html=1;endArrow=classic;endFill=1;fontSize=12;" parent="qI_F97sDJoIzJ8Fcwjjt-1" source="NXViFqLxGMdbV16NTgtc-46" target="R0s2jqCqZAeIJGEhFhbV-14" edge="1">
          <mxGeometry relative="1" as="geometry"/>
        </mxCell>
        <mxCell id="NXViFqLxGMdbV16NTgtc-46" value="Player Show Inventory &lt;b&gt;rh&lt;/b&gt;" style="rounded=1;whiteSpace=wrap;html=1;fillColor=#ffffff;fontSize=12;" parent="qI_F97sDJoIzJ8Fcwjjt-1" vertex="1">
          <mxGeometry x="600" y="880" width="80" height="40" as="geometry"/>
        </mxCell>
        <mxCell id="R0s2jqCqZAeIJGEhFhbV-16" style="edgeStyle=none;rounded=0;orthogonalLoop=1;jettySize=auto;html=1;endArrow=classic;endFill=1;fontSize=12;" parent="qI_F97sDJoIzJ8Fcwjjt-1" source="R0s2jqCqZAeIJGEhFhbV-0" target="R0s2jqCqZAeIJGEhFhbV-14" edge="1">
          <mxGeometry relative="1" as="geometry"/>
        </mxCell>
        <mxCell id="R0s2jqCqZAeIJGEhFhbV-0" value="Drop Item &lt;b&gt;rh&lt;/b&gt;" style="rounded=1;whiteSpace=wrap;html=1;fillColor=#ffffff;fontSize=12;" parent="qI_F97sDJoIzJ8Fcwjjt-1" vertex="1">
          <mxGeometry x="560" y="960" width="80" height="40" as="geometry"/>
        </mxCell>
        <mxCell id="R0s2jqCqZAeIJGEhFhbV-17" style="edgeStyle=none;rounded=0;orthogonalLoop=1;jettySize=auto;html=1;endArrow=classic;endFill=1;fontSize=12;" parent="qI_F97sDJoIzJ8Fcwjjt-1" source="R0s2jqCqZAeIJGEhFhbV-1" target="R0s2jqCqZAeIJGEhFhbV-14" edge="1">
          <mxGeometry relative="1" as="geometry">
            <Array as="points">
              <mxPoint x="680" y="1060"/>
            </Array>
          </mxGeometry>
        </mxCell>
        <mxCell id="R0s2jqCqZAeIJGEhFhbV-1" value="Take Item &lt;b&gt;rh&lt;/b&gt;" style="rounded=1;whiteSpace=wrap;html=1;fillColor=#ffffff;fontSize=12;" parent="qI_F97sDJoIzJ8Fcwjjt-1" vertex="1">
          <mxGeometry x="520" y="1040" width="80" height="40" as="geometry"/>
        </mxCell>
        <mxCell id="R0s2jqCqZAeIJGEhFhbV-10" style="edgeStyle=none;rounded=0;orthogonalLoop=1;jettySize=auto;html=1;endArrow=classic;endFill=1;fontSize=12;" parent="qI_F97sDJoIzJ8Fcwjjt-1" source="R0s2jqCqZAeIJGEhFhbV-5" target="NXViFqLxGMdbV16NTgtc-28" edge="1">
          <mxGeometry relative="1" as="geometry"/>
        </mxCell>
        <mxCell id="R0s2jqCqZAeIJGEhFhbV-5" value="Move&amp;nbsp;&lt;b&gt;rh&lt;/b&gt;" style="rounded=1;whiteSpace=wrap;html=1;fillColor=#ffffff;fontSize=12;" parent="qI_F97sDJoIzJ8Fcwjjt-1" vertex="1">
          <mxGeometry x="100" y="1060" width="80" height="40" as="geometry"/>
        </mxCell>
        <mxCell id="R0s2jqCqZAeIJGEhFhbV-18" style="edgeStyle=none;rounded=0;orthogonalLoop=1;jettySize=auto;html=1;endArrow=classic;endFill=1;fontSize=12;" parent="qI_F97sDJoIzJ8Fcwjjt-1" source="R0s2jqCqZAeIJGEhFhbV-14" target="NXViFqLxGMdbV16NTgtc-35" edge="1">
          <mxGeometry relative="1" as="geometry">
            <Array as="points">
              <mxPoint x="740" y="560"/>
            </Array>
          </mxGeometry>
        </mxCell>
        <mxCell id="R0s2jqCqZAeIJGEhFhbV-14" value="" style="rhombus;whiteSpace=wrap;html=1;fillColor=#ffffff;fontSize=12;" parent="qI_F97sDJoIzJ8Fcwjjt-1" vertex="1">
          <mxGeometry x="720" y="960" width="40" height="40" as="geometry"/>
        </mxCell>
        <mxCell id="zuVdJeWFXlgEltMBfRA9-5" style="edgeStyle=orthogonalEdgeStyle;rounded=0;orthogonalLoop=1;jettySize=auto;html=1;" edge="1" parent="qI_F97sDJoIzJ8Fcwjjt-1" source="8EFpMuq1cpKkFvQHzwaM-3" target="NXViFqLxGMdbV16NTgtc-35">
          <mxGeometry relative="1" as="geometry">
            <Array as="points">
              <mxPoint x="260" y="560"/>
            </Array>
          </mxGeometry>
        </mxCell>
        <mxCell id="8EFpMuq1cpKkFvQHzwaM-3" value="FIght &lt;b&gt;rh&lt;/b&gt;" style="rounded=1;whiteSpace=wrap;html=1;fillColor=#ffffff;fontSize=12;" parent="qI_F97sDJoIzJ8Fcwjjt-1" vertex="1">
          <mxGeometry x="220" y="840" width="80" height="40" as="geometry"/>
        </mxCell>
        <mxCell id="8EFpMuq1cpKkFvQHzwaM-11" style="edgeStyle=none;rounded=0;orthogonalLoop=1;jettySize=auto;html=1;entryX=0;entryY=1;entryDx=0;entryDy=0;endArrow=classic;endFill=1;fontSize=12;" parent="qI_F97sDJoIzJ8Fcwjjt-1" source="8EFpMuq1cpKkFvQHzwaM-4" target="NXViFqLxGMdbV16NTgtc-35" edge="1">
          <mxGeometry relative="1" as="geometry">
            <Array as="points">
              <mxPoint x="360" y="620"/>
            </Array>
          </mxGeometry>
        </mxCell>
        <mxCell id="8EFpMuq1cpKkFvQHzwaM-4" value="Dialogue &lt;b&gt;rh&lt;/b&gt;" style="rounded=1;whiteSpace=wrap;html=1;fillColor=#ffffff;fontSize=12;" parent="qI_F97sDJoIzJ8Fcwjjt-1" vertex="1">
          <mxGeometry x="280" y="780" width="80" height="40" as="geometry"/>
        </mxCell>
        <mxCell id="8EFpMuq1cpKkFvQHzwaM-15" value="" style="ellipse;html=1;shape=endState;fillColor=#000000;strokeColor=#ff0000;fontSize=12;" parent="qI_F97sDJoIzJ8Fcwjjt-1" vertex="1">
          <mxGeometry x="280" y="1060" width="40" height="40" as="geometry"/>
        </mxCell>
        <mxCell id="8EFpMuq1cpKkFvQHzwaM-24" style="edgeStyle=none;rounded=0;orthogonalLoop=1;jettySize=auto;html=1;endArrow=classic;endFill=1;fontSize=12;" parent="qI_F97sDJoIzJ8Fcwjjt-1" source="8EFpMuq1cpKkFvQHzwaM-19" target="NXViFqLxGMdbV16NTgtc-25" edge="1">
          <mxGeometry relative="1" as="geometry"/>
        </mxCell>
        <mxCell id="8EFpMuq1cpKkFvQHzwaM-19" value="Split String" style="rounded=1;whiteSpace=wrap;html=1;fillColor=#ffffff;fontSize=12;" parent="qI_F97sDJoIzJ8Fcwjjt-1" vertex="1">
          <mxGeometry x="400" y="680" width="80" height="40" as="geometry"/>
        </mxCell>
        <mxCell id="0F-RVmH0eigcLp2u_qcq-15" style="edgeStyle=orthogonalEdgeStyle;rounded=0;orthogonalLoop=1;jettySize=auto;html=1;" edge="1" parent="qI_F97sDJoIzJ8Fcwjjt-1" source="8EFpMuq1cpKkFvQHzwaM-20" target="NXViFqLxGMdbV16NTgtc-31">
          <mxGeometry relative="1" as="geometry"/>
        </mxCell>
        <mxCell id="8EFpMuq1cpKkFvQHzwaM-20" value="Test command" style="rounded=1;whiteSpace=wrap;html=1;fillColor=#ffffff;fontSize=12;" parent="qI_F97sDJoIzJ8Fcwjjt-1" vertex="1">
          <mxGeometry x="400" y="820" width="80" height="40" as="geometry"/>
        </mxCell>
        <mxCell id="7kXN3SBLUDwcWu-5-iRZ-2" style="edgeStyle=orthogonalEdgeStyle;rounded=0;orthogonalLoop=1;jettySize=auto;html=1;" parent="qI_F97sDJoIzJ8Fcwjjt-1" source="8EFpMuq1cpKkFvQHzwaM-27" target="7kXN3SBLUDwcWu-5-iRZ-1" edge="1">
          <mxGeometry relative="1" as="geometry"/>
        </mxCell>
        <mxCell id="8EFpMuq1cpKkFvQHzwaM-27" value="NPC Name" style="rounded=0;whiteSpace=wrap;html=1;fillColor=#ffffff;fontSize=12;" parent="qI_F97sDJoIzJ8Fcwjjt-1" vertex="1">
          <mxGeometry x="860" y="80" width="80" height="40" as="geometry"/>
        </mxCell>
        <mxCell id="8EFpMuq1cpKkFvQHzwaM-28" value="&lt;b&gt;Dialogue()&lt;/b&gt;" style="text;html=1;strokeColor=none;fillColor=none;align=center;verticalAlign=middle;whiteSpace=wrap;rounded=0;fontSize=16;" parent="qI_F97sDJoIzJ8Fcwjjt-1" vertex="1">
          <mxGeometry x="900" y="20" width="100" height="40" as="geometry"/>
        </mxCell>
        <mxCell id="8EFpMuq1cpKkFvQHzwaM-29" style="edgeStyle=none;rounded=0;orthogonalLoop=1;jettySize=auto;html=1;entryX=1;entryY=0.5;entryDx=0;entryDy=0;endArrow=classic;endFill=1;fontSize=12;" parent="qI_F97sDJoIzJ8Fcwjjt-1" source="8EFpMuq1cpKkFvQHzwaM-28" target="8EFpMuq1cpKkFvQHzwaM-28" edge="1">
          <mxGeometry relative="1" as="geometry"/>
        </mxCell>
        <mxCell id="7kXN3SBLUDwcWu-5-iRZ-5" style="edgeStyle=orthogonalEdgeStyle;rounded=0;orthogonalLoop=1;jettySize=auto;html=1;" parent="qI_F97sDJoIzJ8Fcwjjt-1" source="ZrQqbSRWb1dp9qmGIr1X-4" target="7kXN3SBLUDwcWu-5-iRZ-4" edge="1">
          <mxGeometry relative="1" as="geometry"/>
        </mxCell>
        <mxCell id="5Byr1OxnrVEhdTqIzdZQ-4" style="edgeStyle=orthogonalEdgeStyle;rounded=0;orthogonalLoop=1;jettySize=auto;html=1;endArrow=classic;endFill=1;endSize=6;" edge="1" parent="qI_F97sDJoIzJ8Fcwjjt-1" source="ZrQqbSRWb1dp9qmGIr1X-4" target="5Byr1OxnrVEhdTqIzdZQ-3">
          <mxGeometry relative="1" as="geometry">
            <Array as="points">
              <mxPoint x="1140" y="140"/>
              <mxPoint x="1140" y="140"/>
            </Array>
          </mxGeometry>
        </mxCell>
        <mxCell id="5Byr1OxnrVEhdTqIzdZQ-5" value="[is not in list]" style="text;html=1;align=center;verticalAlign=middle;resizable=0;points=[];labelBackgroundColor=#ffffff;" vertex="1" connectable="0" parent="5Byr1OxnrVEhdTqIzdZQ-4">
          <mxGeometry x="0.4" y="-1" relative="1" as="geometry">
            <mxPoint x="1" y="-36" as="offset"/>
          </mxGeometry>
        </mxCell>
        <mxCell id="ZrQqbSRWb1dp9qmGIr1X-4" value="" style="rhombus;whiteSpace=wrap;html=1;fillColor=#ffffff;fontSize=12;" parent="qI_F97sDJoIzJ8Fcwjjt-1" vertex="1">
          <mxGeometry x="1120" y="80" width="40" height="40" as="geometry"/>
        </mxCell>
        <mxCell id="fjHCLHRmVgMWuAmFMhev-1" value="" style="ellipse;html=1;shape=endState;fillColor=#000000;strokeColor=#ff0000;fontSize=12;" parent="qI_F97sDJoIzJ8Fcwjjt-1" vertex="1">
          <mxGeometry x="920" y="160" width="40" height="40" as="geometry"/>
        </mxCell>
        <mxCell id="7kXN3SBLUDwcWu-5-iRZ-3" style="edgeStyle=orthogonalEdgeStyle;rounded=0;orthogonalLoop=1;jettySize=auto;html=1;" parent="qI_F97sDJoIzJ8Fcwjjt-1" source="7kXN3SBLUDwcWu-5-iRZ-1" target="ZrQqbSRWb1dp9qmGIr1X-4" edge="1">
          <mxGeometry relative="1" as="geometry"/>
        </mxCell>
        <mxCell id="7kXN3SBLUDwcWu-5-iRZ-1" value="Search current room&#39;s characters list for NPC Name" style="rounded=1;whiteSpace=wrap;html=1;" parent="qI_F97sDJoIzJ8Fcwjjt-1" vertex="1">
          <mxGeometry x="970" y="80" width="120" height="40" as="geometry"/>
        </mxCell>
        <mxCell id="7kXN3SBLUDwcWu-5-iRZ-7" style="edgeStyle=orthogonalEdgeStyle;rounded=0;orthogonalLoop=1;jettySize=auto;html=1;" parent="qI_F97sDJoIzJ8Fcwjjt-1" source="7kXN3SBLUDwcWu-5-iRZ-4" target="7kXN3SBLUDwcWu-5-iRZ-6" edge="1">
          <mxGeometry relative="1" as="geometry"/>
        </mxCell>
        <mxCell id="7kXN3SBLUDwcWu-5-iRZ-4" value="Get NPC behaviour" style="rounded=1;whiteSpace=wrap;html=1;" parent="qI_F97sDJoIzJ8Fcwjjt-1" vertex="1">
          <mxGeometry x="1180" y="80" width="80" height="40" as="geometry"/>
        </mxCell>
        <mxCell id="7kXN3SBLUDwcWu-5-iRZ-9" style="edgeStyle=orthogonalEdgeStyle;rounded=0;orthogonalLoop=1;jettySize=auto;html=1;" parent="qI_F97sDJoIzJ8Fcwjjt-1" source="7kXN3SBLUDwcWu-5-iRZ-6" target="7kXN3SBLUDwcWu-5-iRZ-8" edge="1">
          <mxGeometry relative="1" as="geometry"/>
        </mxCell>
        <mxCell id="ocqhPcDgs7hZqINic7j9-0" value="[hostile]" style="text;html=1;align=center;verticalAlign=middle;resizable=0;points=[];labelBackgroundColor=#ffffff;" parent="7kXN3SBLUDwcWu-5-iRZ-9" vertex="1" connectable="0">
          <mxGeometry x="-0.2556" y="2" relative="1" as="geometry">
            <mxPoint as="offset"/>
          </mxGeometry>
        </mxCell>
        <mxCell id="gLG8VtLL_uXr13QGNN9T-0" style="edgeStyle=orthogonalEdgeStyle;rounded=0;orthogonalLoop=1;jettySize=auto;html=1;" edge="1" parent="qI_F97sDJoIzJ8Fcwjjt-1" source="7kXN3SBLUDwcWu-5-iRZ-6" target="dLXw7ys3ZLdi9Zwu18VF-0">
          <mxGeometry relative="1" as="geometry"/>
        </mxCell>
        <mxCell id="7kXN3SBLUDwcWu-5-iRZ-6" value="" style="rhombus;whiteSpace=wrap;html=1;" parent="qI_F97sDJoIzJ8Fcwjjt-1" vertex="1">
          <mxGeometry x="1280" y="80" width="40" height="40" as="geometry"/>
        </mxCell>
        <mxCell id="7kXN3SBLUDwcWu-5-iRZ-8" value="Fight &lt;b&gt;rh&lt;/b&gt;" style="rounded=1;whiteSpace=wrap;html=1;" parent="qI_F97sDJoIzJ8Fcwjjt-1" vertex="1">
          <mxGeometry x="1300" y="160" width="80" height="40" as="geometry"/>
        </mxCell>
        <mxCell id="gLG8VtLL_uXr13QGNN9T-6" style="edgeStyle=orthogonalEdgeStyle;rounded=0;orthogonalLoop=1;jettySize=auto;html=1;" edge="1" parent="qI_F97sDJoIzJ8Fcwjjt-1" source="ocqhPcDgs7hZqINic7j9-1" target="ClcdgU5FPO73r0vOtbqK-4">
          <mxGeometry relative="1" as="geometry"/>
        </mxCell>
        <mxCell id="ocqhPcDgs7hZqINic7j9-1" value="dialogue Show() &lt;b&gt;rh&lt;/b&gt;" style="rounded=1;whiteSpace=wrap;html=1;" parent="qI_F97sDJoIzJ8Fcwjjt-1" vertex="1">
          <mxGeometry x="1440" y="240" width="80" height="40" as="geometry"/>
        </mxCell>
        <mxCell id="zvpoKIg_36yXEaivHxGd-0" value="&lt;b&gt;DialogueNode Show()&lt;/b&gt;" style="text;html=1;strokeColor=none;fillColor=none;align=center;verticalAlign=middle;whiteSpace=wrap;rounded=0;fontSize=16;" parent="qI_F97sDJoIzJ8Fcwjjt-1" vertex="1">
          <mxGeometry x="860" y="340" width="180" height="40" as="geometry"/>
        </mxCell>
        <mxCell id="kcM3ouWORE6v14oSfeZb-11" style="edgeStyle=orthogonalEdgeStyle;rounded=0;orthogonalLoop=1;jettySize=auto;html=1;" edge="1" parent="qI_F97sDJoIzJ8Fcwjjt-1" source="JIp_j-JLZZE6wkcxDpt4-2" target="kcM3ouWORE6v14oSfeZb-9">
          <mxGeometry relative="1" as="geometry"/>
        </mxCell>
        <mxCell id="JIp_j-JLZZE6wkcxDpt4-2" value="Print text" style="rounded=1;whiteSpace=wrap;html=1;" parent="qI_F97sDJoIzJ8Fcwjjt-1" vertex="1">
          <mxGeometry x="880" y="400" width="80" height="40" as="geometry"/>
        </mxCell>
        <mxCell id="kcM3ouWORE6v14oSfeZb-4" style="edgeStyle=orthogonalEdgeStyle;rounded=0;orthogonalLoop=1;jettySize=auto;html=1;" edge="1" parent="qI_F97sDJoIzJ8Fcwjjt-1" source="kcM3ouWORE6v14oSfeZb-1" target="kcM3ouWORE6v14oSfeZb-2">
          <mxGeometry relative="1" as="geometry"/>
        </mxCell>
        <mxCell id="kcM3ouWORE6v14oSfeZb-7" style="edgeStyle=orthogonalEdgeStyle;rounded=0;orthogonalLoop=1;jettySize=auto;html=1;" edge="1" parent="qI_F97sDJoIzJ8Fcwjjt-1" source="kcM3ouWORE6v14oSfeZb-1" target="kcM3ouWORE6v14oSfeZb-6">
          <mxGeometry relative="1" as="geometry"/>
        </mxCell>
        <mxCell id="kcM3ouWORE6v14oSfeZb-8" value="[no more answers]" style="text;html=1;align=center;verticalAlign=middle;resizable=0;points=[];labelBackgroundColor=#ffffff;" vertex="1" connectable="0" parent="kcM3ouWORE6v14oSfeZb-7">
          <mxGeometry x="-0.2802" y="1" relative="1" as="geometry">
            <mxPoint x="-20" y="-1" as="offset"/>
          </mxGeometry>
        </mxCell>
        <mxCell id="kcM3ouWORE6v14oSfeZb-1" value="" style="rhombus;whiteSpace=wrap;html=1;fillColor=#ffffff;fontSize=12;" vertex="1" parent="qI_F97sDJoIzJ8Fcwjjt-1">
          <mxGeometry x="1100" y="480" width="40" height="40" as="geometry"/>
        </mxCell>
        <mxCell id="kcM3ouWORE6v14oSfeZb-16" style="edgeStyle=orthogonalEdgeStyle;rounded=0;orthogonalLoop=1;jettySize=auto;html=1;" edge="1" parent="qI_F97sDJoIzJ8Fcwjjt-1" source="kcM3ouWORE6v14oSfeZb-2" target="kcM3ouWORE6v14oSfeZb-15">
          <mxGeometry relative="1" as="geometry"/>
        </mxCell>
        <mxCell id="kcM3ouWORE6v14oSfeZb-2" value="Print i" style="rounded=1;whiteSpace=wrap;html=1;" vertex="1" parent="qI_F97sDJoIzJ8Fcwjjt-1">
          <mxGeometry x="1160" y="480" width="80" height="40" as="geometry"/>
        </mxCell>
        <mxCell id="kcM3ouWORE6v14oSfeZb-6" value="" style="ellipse;html=1;shape=endState;fillColor=#000000;strokeColor=#ff0000;fontSize=12;" vertex="1" parent="qI_F97sDJoIzJ8Fcwjjt-1">
          <mxGeometry x="920" y="480" width="40" height="40" as="geometry"/>
        </mxCell>
        <mxCell id="kcM3ouWORE6v14oSfeZb-12" style="edgeStyle=orthogonalEdgeStyle;rounded=0;orthogonalLoop=1;jettySize=auto;html=1;" edge="1" parent="qI_F97sDJoIzJ8Fcwjjt-1" source="kcM3ouWORE6v14oSfeZb-9" target="kcM3ouWORE6v14oSfeZb-10">
          <mxGeometry relative="1" as="geometry"/>
        </mxCell>
        <mxCell id="kcM3ouWORE6v14oSfeZb-9" value="Get first Answer from answers" style="rounded=1;whiteSpace=wrap;html=1;" vertex="1" parent="qI_F97sDJoIzJ8Fcwjjt-1">
          <mxGeometry x="980" y="400" width="80" height="40" as="geometry"/>
        </mxCell>
        <mxCell id="kcM3ouWORE6v14oSfeZb-14" style="edgeStyle=orthogonalEdgeStyle;rounded=0;orthogonalLoop=1;jettySize=auto;html=1;" edge="1" parent="qI_F97sDJoIzJ8Fcwjjt-1" source="kcM3ouWORE6v14oSfeZb-10" target="kcM3ouWORE6v14oSfeZb-1">
          <mxGeometry relative="1" as="geometry"/>
        </mxCell>
        <mxCell id="kcM3ouWORE6v14oSfeZb-10" value="Answer, Number i = 1" style="rounded=0;whiteSpace=wrap;html=1;fillColor=#ffffff;fontSize=12;" vertex="1" parent="qI_F97sDJoIzJ8Fcwjjt-1">
          <mxGeometry x="1080" y="400" width="80" height="40" as="geometry"/>
        </mxCell>
        <mxCell id="kcM3ouWORE6v14oSfeZb-19" style="edgeStyle=orthogonalEdgeStyle;rounded=0;orthogonalLoop=1;jettySize=auto;html=1;" edge="1" parent="qI_F97sDJoIzJ8Fcwjjt-1" source="kcM3ouWORE6v14oSfeZb-15" target="kcM3ouWORE6v14oSfeZb-17">
          <mxGeometry relative="1" as="geometry"/>
        </mxCell>
        <mxCell id="kcM3ouWORE6v14oSfeZb-15" value="Answer Show() &lt;b&gt;rh&lt;/b&gt;" style="rounded=1;whiteSpace=wrap;html=1;" vertex="1" parent="qI_F97sDJoIzJ8Fcwjjt-1">
          <mxGeometry x="1260" y="480" width="80" height="40" as="geometry"/>
        </mxCell>
        <mxCell id="kcM3ouWORE6v14oSfeZb-20" style="edgeStyle=orthogonalEdgeStyle;rounded=0;orthogonalLoop=1;jettySize=auto;html=1;" edge="1" parent="qI_F97sDJoIzJ8Fcwjjt-1" source="kcM3ouWORE6v14oSfeZb-17" target="kcM3ouWORE6v14oSfeZb-18">
          <mxGeometry relative="1" as="geometry"/>
        </mxCell>
        <mxCell id="kcM3ouWORE6v14oSfeZb-17" value="Increment i" style="rounded=1;whiteSpace=wrap;html=1;" vertex="1" parent="qI_F97sDJoIzJ8Fcwjjt-1">
          <mxGeometry x="1260" y="540" width="80" height="40" as="geometry"/>
        </mxCell>
        <mxCell id="kcM3ouWORE6v14oSfeZb-21" style="edgeStyle=orthogonalEdgeStyle;rounded=0;orthogonalLoop=1;jettySize=auto;html=1;" edge="1" parent="qI_F97sDJoIzJ8Fcwjjt-1" source="kcM3ouWORE6v14oSfeZb-18" target="kcM3ouWORE6v14oSfeZb-1">
          <mxGeometry relative="1" as="geometry"/>
        </mxCell>
        <mxCell id="kcM3ouWORE6v14oSfeZb-18" value="Get next Answer" style="rounded=1;whiteSpace=wrap;html=1;" vertex="1" parent="qI_F97sDJoIzJ8Fcwjjt-1">
          <mxGeometry x="1160" y="540" width="80" height="40" as="geometry"/>
        </mxCell>
        <mxCell id="kcM3ouWORE6v14oSfeZb-23" value="&lt;b&gt;Answer Show()&lt;/b&gt;" style="text;html=1;strokeColor=none;fillColor=none;align=center;verticalAlign=middle;whiteSpace=wrap;rounded=0;fontSize=16;" vertex="1" parent="qI_F97sDJoIzJ8Fcwjjt-1">
          <mxGeometry x="1400" y="340" width="140" height="40" as="geometry"/>
        </mxCell>
        <mxCell id="ClcdgU5FPO73r0vOtbqK-2" style="edgeStyle=orthogonalEdgeStyle;rounded=0;orthogonalLoop=1;jettySize=auto;html=1;" edge="1" parent="qI_F97sDJoIzJ8Fcwjjt-1" source="ClcdgU5FPO73r0vOtbqK-0" target="ClcdgU5FPO73r0vOtbqK-1">
          <mxGeometry relative="1" as="geometry"/>
        </mxCell>
        <mxCell id="ClcdgU5FPO73r0vOtbqK-0" value="Print text" style="rounded=1;whiteSpace=wrap;html=1;" vertex="1" parent="qI_F97sDJoIzJ8Fcwjjt-1">
          <mxGeometry x="1420" y="400" width="80" height="40" as="geometry"/>
        </mxCell>
        <mxCell id="ClcdgU5FPO73r0vOtbqK-1" value="" style="ellipse;html=1;shape=endState;fillColor=#000000;strokeColor=#ff0000;fontSize=12;" vertex="1" parent="qI_F97sDJoIzJ8Fcwjjt-1">
          <mxGeometry x="1540" y="400" width="40" height="40" as="geometry"/>
        </mxCell>
        <mxCell id="gLG8VtLL_uXr13QGNN9T-7" style="edgeStyle=orthogonalEdgeStyle;rounded=0;orthogonalLoop=1;jettySize=auto;html=1;" edge="1" parent="qI_F97sDJoIzJ8Fcwjjt-1" source="ClcdgU5FPO73r0vOtbqK-4" target="ClcdgU5FPO73r0vOtbqK-6">
          <mxGeometry relative="1" as="geometry"/>
        </mxCell>
        <mxCell id="ClcdgU5FPO73r0vOtbqK-4" value="Read Player Input" style="rounded=1;whiteSpace=wrap;html=1;" vertex="1" parent="qI_F97sDJoIzJ8Fcwjjt-1">
          <mxGeometry x="1340" y="240" width="80" height="40" as="geometry"/>
        </mxCell>
        <mxCell id="gLG8VtLL_uXr13QGNN9T-9" style="edgeStyle=orthogonalEdgeStyle;rounded=0;orthogonalLoop=1;jettySize=auto;html=1;" edge="1" parent="qI_F97sDJoIzJ8Fcwjjt-1" source="ClcdgU5FPO73r0vOtbqK-6" target="gLG8VtLL_uXr13QGNN9T-8">
          <mxGeometry relative="1" as="geometry"/>
        </mxCell>
        <mxCell id="ClcdgU5FPO73r0vOtbqK-6" value="Player Input" style="rounded=0;whiteSpace=wrap;html=1;fillColor=#ffffff;fontSize=12;" vertex="1" parent="qI_F97sDJoIzJ8Fcwjjt-1">
          <mxGeometry x="1240" y="240" width="80" height="40" as="geometry"/>
        </mxCell>
        <mxCell id="gLG8VtLL_uXr13QGNN9T-2" style="edgeStyle=orthogonalEdgeStyle;rounded=0;orthogonalLoop=1;jettySize=auto;html=1;" edge="1" parent="qI_F97sDJoIzJ8Fcwjjt-1" source="dLXw7ys3ZLdi9Zwu18VF-0" target="gLG8VtLL_uXr13QGNN9T-1">
          <mxGeometry relative="1" as="geometry"/>
        </mxCell>
        <mxCell id="dLXw7ys3ZLdi9Zwu18VF-0" value="Get NPC&#39;s dialogue" style="rounded=1;whiteSpace=wrap;html=1;" vertex="1" parent="qI_F97sDJoIzJ8Fcwjjt-1">
          <mxGeometry x="1340" y="80" width="80" height="40" as="geometry"/>
        </mxCell>
        <mxCell id="gLG8VtLL_uXr13QGNN9T-4" style="edgeStyle=orthogonalEdgeStyle;rounded=0;orthogonalLoop=1;jettySize=auto;html=1;" edge="1" parent="qI_F97sDJoIzJ8Fcwjjt-1" source="gLG8VtLL_uXr13QGNN9T-1" target="gLG8VtLL_uXr13QGNN9T-3">
          <mxGeometry relative="1" as="geometry"/>
        </mxCell>
        <mxCell id="gLG8VtLL_uXr13QGNN9T-1" value="dialogue:&lt;br&gt;dialogueNode" style="rounded=0;whiteSpace=wrap;html=1;fillColor=#ffffff;fontSize=12;" vertex="1" parent="qI_F97sDJoIzJ8Fcwjjt-1">
          <mxGeometry x="1440" y="80" width="80" height="40" as="geometry"/>
        </mxCell>
        <mxCell id="gLG8VtLL_uXr13QGNN9T-5" style="edgeStyle=orthogonalEdgeStyle;rounded=0;orthogonalLoop=1;jettySize=auto;html=1;" edge="1" parent="qI_F97sDJoIzJ8Fcwjjt-1" source="gLG8VtLL_uXr13QGNN9T-3" target="ocqhPcDgs7hZqINic7j9-1">
          <mxGeometry relative="1" as="geometry"/>
        </mxCell>
        <mxCell id="gLG8VtLL_uXr13QGNN9T-3" value="" style="rhombus;whiteSpace=wrap;html=1;fillColor=#ffffff;fontSize=12;" vertex="1" parent="qI_F97sDJoIzJ8Fcwjjt-1">
          <mxGeometry x="1460" y="160" width="40" height="40" as="geometry"/>
        </mxCell>
        <mxCell id="gLG8VtLL_uXr13QGNN9T-11" style="edgeStyle=orthogonalEdgeStyle;rounded=0;orthogonalLoop=1;jettySize=auto;html=1;" edge="1" parent="qI_F97sDJoIzJ8Fcwjjt-1" source="gLG8VtLL_uXr13QGNN9T-8" target="gLG8VtLL_uXr13QGNN9T-10">
          <mxGeometry relative="1" as="geometry"/>
        </mxCell>
        <mxCell id="gLG8VtLL_uXr13QGNN9T-8" value="Pick answer&amp;nbsp; according to Player Input" style="rounded=1;whiteSpace=wrap;html=1;" vertex="1" parent="qI_F97sDJoIzJ8Fcwjjt-1">
          <mxGeometry x="1120" y="240" width="100" height="40" as="geometry"/>
        </mxCell>
        <mxCell id="gLG8VtLL_uXr13QGNN9T-13" style="edgeStyle=orthogonalEdgeStyle;rounded=0;orthogonalLoop=1;jettySize=auto;html=1;" edge="1" parent="qI_F97sDJoIzJ8Fcwjjt-1" source="gLG8VtLL_uXr13QGNN9T-10" target="gLG8VtLL_uXr13QGNN9T-12">
          <mxGeometry relative="1" as="geometry"/>
        </mxCell>
        <mxCell id="gLG8VtLL_uXr13QGNN9T-10" value="answer:&lt;br&gt;Answer" style="rounded=0;whiteSpace=wrap;html=1;fillColor=#ffffff;fontSize=12;" vertex="1" parent="qI_F97sDJoIzJ8Fcwjjt-1">
          <mxGeometry x="1040" y="240" width="60" height="40" as="geometry"/>
        </mxCell>
        <mxCell id="gLG8VtLL_uXr13QGNN9T-14" style="edgeStyle=orthogonalEdgeStyle;rounded=0;orthogonalLoop=1;jettySize=auto;html=1;" edge="1" parent="qI_F97sDJoIzJ8Fcwjjt-1" source="gLG8VtLL_uXr13QGNN9T-12" target="gLG8VtLL_uXr13QGNN9T-3">
          <mxGeometry relative="1" as="geometry">
            <Array as="points">
              <mxPoint x="970" y="220"/>
              <mxPoint x="1400" y="220"/>
              <mxPoint x="1400" y="180"/>
            </Array>
          </mxGeometry>
        </mxCell>
        <mxCell id="gLG8VtLL_uXr13QGNN9T-12" value="Set dialogue to&amp;nbsp; answer&#39;s destination" style="rounded=1;whiteSpace=wrap;html=1;" vertex="1" parent="qI_F97sDJoIzJ8Fcwjjt-1">
          <mxGeometry x="920" y="240" width="100" height="40" as="geometry"/>
        </mxCell>
        <mxCell id="gLG8VtLL_uXr13QGNN9T-16" value="&lt;b&gt;Show Commands&lt;/b&gt;" style="text;html=1;strokeColor=none;fillColor=none;align=center;verticalAlign=middle;whiteSpace=wrap;rounded=0;fontSize=16;" vertex="1" parent="qI_F97sDJoIzJ8Fcwjjt-1">
          <mxGeometry x="860" y="640" width="140" height="40" as="geometry"/>
        </mxCell>
        <mxCell id="gLG8VtLL_uXr13QGNN9T-23" style="edgeStyle=orthogonalEdgeStyle;rounded=0;orthogonalLoop=1;jettySize=auto;html=1;" edge="1" parent="qI_F97sDJoIzJ8Fcwjjt-1" source="gLG8VtLL_uXr13QGNN9T-19" target="gLG8VtLL_uXr13QGNN9T-21">
          <mxGeometry relative="1" as="geometry"/>
        </mxCell>
        <mxCell id="gLG8VtLL_uXr13QGNN9T-19" value="Create list of commands" style="rounded=1;whiteSpace=wrap;html=1;" vertex="1" parent="qI_F97sDJoIzJ8Fcwjjt-1">
          <mxGeometry x="880" y="700" width="80" height="40" as="geometry"/>
        </mxCell>
        <mxCell id="gLG8VtLL_uXr13QGNN9T-24" style="edgeStyle=orthogonalEdgeStyle;rounded=0;orthogonalLoop=1;jettySize=auto;html=1;" edge="1" parent="qI_F97sDJoIzJ8Fcwjjt-1" source="gLG8VtLL_uXr13QGNN9T-21" target="gLG8VtLL_uXr13QGNN9T-22">
          <mxGeometry relative="1" as="geometry"/>
        </mxCell>
        <mxCell id="gLG8VtLL_uXr13QGNN9T-21" value="commands" style="rounded=0;whiteSpace=wrap;html=1;fillColor=#ffffff;fontSize=12;" vertex="1" parent="qI_F97sDJoIzJ8Fcwjjt-1">
          <mxGeometry x="1000" y="700" width="80" height="40" as="geometry"/>
        </mxCell>
        <mxCell id="gLG8VtLL_uXr13QGNN9T-26" style="edgeStyle=orthogonalEdgeStyle;rounded=0;orthogonalLoop=1;jettySize=auto;html=1;" edge="1" parent="qI_F97sDJoIzJ8Fcwjjt-1" source="gLG8VtLL_uXr13QGNN9T-22" target="gLG8VtLL_uXr13QGNN9T-25">
          <mxGeometry relative="1" as="geometry"/>
        </mxCell>
        <mxCell id="gLG8VtLL_uXr13QGNN9T-22" value="Print commands" style="rounded=1;whiteSpace=wrap;html=1;" vertex="1" parent="qI_F97sDJoIzJ8Fcwjjt-1">
          <mxGeometry x="1120" y="700" width="80" height="40" as="geometry"/>
        </mxCell>
        <mxCell id="gLG8VtLL_uXr13QGNN9T-25" value="" style="ellipse;html=1;shape=endState;fillColor=#000000;strokeColor=#ff0000;fontSize=12;" vertex="1" parent="qI_F97sDJoIzJ8Fcwjjt-1">
          <mxGeometry x="1240" y="700" width="40" height="40" as="geometry"/>
        </mxCell>
        <mxCell id="gLG8VtLL_uXr13QGNN9T-28" value="&lt;b&gt;ShowInventory&lt;/b&gt;" style="text;html=1;strokeColor=none;fillColor=none;align=center;verticalAlign=middle;whiteSpace=wrap;rounded=0;fontSize=16;" vertex="1" parent="qI_F97sDJoIzJ8Fcwjjt-1">
          <mxGeometry x="1700" y="20" width="140" height="40" as="geometry"/>
        </mxCell>
        <mxCell id="0F-RVmH0eigcLp2u_qcq-3" style="edgeStyle=orthogonalEdgeStyle;rounded=0;orthogonalLoop=1;jettySize=auto;html=1;" edge="1" parent="qI_F97sDJoIzJ8Fcwjjt-1" source="gLG8VtLL_uXr13QGNN9T-29" target="G6uZ0SUlJQGm0cW3veEz-1">
          <mxGeometry relative="1" as="geometry"/>
        </mxCell>
        <mxCell id="gLG8VtLL_uXr13QGNN9T-29" value="Get first item in inventory" style="rounded=1;whiteSpace=wrap;html=1;" vertex="1" parent="qI_F97sDJoIzJ8Fcwjjt-1">
          <mxGeometry x="1720" y="80" width="80" height="40" as="geometry"/>
        </mxCell>
        <mxCell id="0F-RVmH0eigcLp2u_qcq-5" style="edgeStyle=orthogonalEdgeStyle;rounded=0;orthogonalLoop=1;jettySize=auto;html=1;" edge="1" parent="qI_F97sDJoIzJ8Fcwjjt-1" source="G6uZ0SUlJQGm0cW3veEz-1" target="G6uZ0SUlJQGm0cW3veEz-3">
          <mxGeometry relative="1" as="geometry"/>
        </mxCell>
        <mxCell id="G6uZ0SUlJQGm0cW3veEz-1" value="item: Item" style="rounded=0;whiteSpace=wrap;html=1;fillColor=#ffffff;fontSize=12;" vertex="1" parent="qI_F97sDJoIzJ8Fcwjjt-1">
          <mxGeometry x="1820" y="80" width="80" height="40" as="geometry"/>
        </mxCell>
        <mxCell id="0F-RVmH0eigcLp2u_qcq-7" style="edgeStyle=orthogonalEdgeStyle;rounded=0;orthogonalLoop=1;jettySize=auto;html=1;" edge="1" parent="qI_F97sDJoIzJ8Fcwjjt-1" source="G6uZ0SUlJQGm0cW3veEz-2" target="0F-RVmH0eigcLp2u_qcq-1">
          <mxGeometry relative="1" as="geometry"/>
        </mxCell>
        <mxCell id="G6uZ0SUlJQGm0cW3veEz-2" value="item Show() &lt;b&gt;rh&lt;/b&gt;" style="rounded=1;whiteSpace=wrap;html=1;" vertex="1" parent="qI_F97sDJoIzJ8Fcwjjt-1">
          <mxGeometry x="1980" y="80" width="80" height="40" as="geometry"/>
        </mxCell>
        <mxCell id="0F-RVmH0eigcLp2u_qcq-6" style="edgeStyle=orthogonalEdgeStyle;rounded=0;orthogonalLoop=1;jettySize=auto;html=1;" edge="1" parent="qI_F97sDJoIzJ8Fcwjjt-1" source="G6uZ0SUlJQGm0cW3veEz-3" target="G6uZ0SUlJQGm0cW3veEz-2">
          <mxGeometry relative="1" as="geometry"/>
        </mxCell>
        <mxCell id="0F-RVmH0eigcLp2u_qcq-9" style="edgeStyle=orthogonalEdgeStyle;rounded=0;orthogonalLoop=1;jettySize=auto;html=1;" edge="1" parent="qI_F97sDJoIzJ8Fcwjjt-1" source="G6uZ0SUlJQGm0cW3veEz-3" target="0F-RVmH0eigcLp2u_qcq-8">
          <mxGeometry relative="1" as="geometry"/>
        </mxCell>
        <mxCell id="0F-RVmH0eigcLp2u_qcq-10" value="[no more items]" style="text;html=1;align=center;verticalAlign=middle;resizable=0;points=[];labelBackgroundColor=#ffffff;" vertex="1" connectable="0" parent="0F-RVmH0eigcLp2u_qcq-9">
          <mxGeometry x="-0.2222" y="2" relative="1" as="geometry">
            <mxPoint as="offset"/>
          </mxGeometry>
        </mxCell>
        <mxCell id="G6uZ0SUlJQGm0cW3veEz-3" value="" style="rhombus;whiteSpace=wrap;html=1;fillColor=#ffffff;fontSize=12;" vertex="1" parent="qI_F97sDJoIzJ8Fcwjjt-1">
          <mxGeometry x="1920" y="80" width="40" height="40" as="geometry"/>
        </mxCell>
        <mxCell id="0F-RVmH0eigcLp2u_qcq-2" style="edgeStyle=orthogonalEdgeStyle;rounded=0;orthogonalLoop=1;jettySize=auto;html=1;" edge="1" parent="qI_F97sDJoIzJ8Fcwjjt-1" source="0F-RVmH0eigcLp2u_qcq-1" target="G6uZ0SUlJQGm0cW3veEz-3">
          <mxGeometry relative="1" as="geometry">
            <Array as="points">
              <mxPoint x="2120" y="60"/>
              <mxPoint x="1940" y="60"/>
            </Array>
          </mxGeometry>
        </mxCell>
        <mxCell id="0F-RVmH0eigcLp2u_qcq-1" value="Get next item in inventory" style="rounded=1;whiteSpace=wrap;html=1;" vertex="1" parent="qI_F97sDJoIzJ8Fcwjjt-1">
          <mxGeometry x="2080" y="80" width="80" height="40" as="geometry"/>
        </mxCell>
        <mxCell id="0F-RVmH0eigcLp2u_qcq-8" value="" style="ellipse;html=1;shape=endState;fillColor=#000000;strokeColor=#ff0000;fontSize=12;" vertex="1" parent="qI_F97sDJoIzJ8Fcwjjt-1">
          <mxGeometry x="1920" y="160" width="40" height="40" as="geometry"/>
        </mxCell>
        <mxCell id="0F-RVmH0eigcLp2u_qcq-20" style="edgeStyle=none;rounded=0;orthogonalLoop=1;jettySize=auto;html=1;endArrow=classic;endFill=1;fontSize=12;" edge="1" parent="qI_F97sDJoIzJ8Fcwjjt-1" source="NXViFqLxGMdbV16NTgtc-31" target="R0s2jqCqZAeIJGEhFhbV-1">
          <mxGeometry relative="1" as="geometry">
            <mxPoint x="452.5" y="927.5" as="sourcePoint"/>
            <mxPoint x="542.8571428571429" y="1040" as="targetPoint"/>
          </mxGeometry>
        </mxCell>
        <mxCell id="0F-RVmH0eigcLp2u_qcq-21" value="[take]" style="text;html=1;align=center;verticalAlign=middle;resizable=0;points=[];labelBackgroundColor=#ffffff;fontSize=12;" vertex="1" connectable="0" parent="0F-RVmH0eigcLp2u_qcq-20">
          <mxGeometry x="0.1294" y="1" relative="1" as="geometry">
            <mxPoint as="offset"/>
          </mxGeometry>
        </mxCell>
        <mxCell id="0F-RVmH0eigcLp2u_qcq-23" style="edgeStyle=none;rounded=0;orthogonalLoop=1;jettySize=auto;html=1;endArrow=classic;endFill=1;fontSize=12;" edge="1" parent="qI_F97sDJoIzJ8Fcwjjt-1" source="NXViFqLxGMdbV16NTgtc-31" target="NXViFqLxGMdbV16NTgtc-46">
          <mxGeometry relative="1" as="geometry">
            <mxPoint x="460" y="920" as="sourcePoint"/>
            <mxPoint x="540" y="905.7142857142858" as="targetPoint"/>
          </mxGeometry>
        </mxCell>
        <mxCell id="0F-RVmH0eigcLp2u_qcq-24" value="[inventory]" style="text;html=1;align=center;verticalAlign=middle;resizable=0;points=[];labelBackgroundColor=#ffffff;fontSize=12;" vertex="1" connectable="0" parent="0F-RVmH0eigcLp2u_qcq-23">
          <mxGeometry x="-0.1571" y="1" relative="1" as="geometry">
            <mxPoint as="offset"/>
          </mxGeometry>
        </mxCell>
        <mxCell id="0F-RVmH0eigcLp2u_qcq-36" style="edgeStyle=orthogonalEdgeStyle;rounded=0;orthogonalLoop=1;jettySize=auto;html=1;endArrow=classic;endFill=1;" edge="1" parent="qI_F97sDJoIzJ8Fcwjjt-1" source="0F-RVmH0eigcLp2u_qcq-25" target="0F-RVmH0eigcLp2u_qcq-29">
          <mxGeometry relative="1" as="geometry"/>
        </mxCell>
        <mxCell id="0F-RVmH0eigcLp2u_qcq-25" value="Item name" style="rounded=0;whiteSpace=wrap;html=1;fillColor=#ffffff;fontSize=12;" vertex="1" parent="qI_F97sDJoIzJ8Fcwjjt-1">
          <mxGeometry x="1700" y="320" width="80" height="40" as="geometry"/>
        </mxCell>
        <mxCell id="0F-RVmH0eigcLp2u_qcq-37" style="edgeStyle=orthogonalEdgeStyle;rounded=0;orthogonalLoop=1;jettySize=auto;html=1;endArrow=classic;endFill=1;" edge="1" parent="qI_F97sDJoIzJ8Fcwjjt-1" source="0F-RVmH0eigcLp2u_qcq-29" target="0F-RVmH0eigcLp2u_qcq-30">
          <mxGeometry relative="1" as="geometry"/>
        </mxCell>
        <mxCell id="0F-RVmH0eigcLp2u_qcq-29" value="Test if item is in player&#39;s&amp;nbsp; inventory" style="rounded=1;whiteSpace=wrap;html=1;" vertex="1" parent="qI_F97sDJoIzJ8Fcwjjt-1">
          <mxGeometry x="1800" y="320" width="80" height="40" as="geometry"/>
        </mxCell>
        <mxCell id="0F-RVmH0eigcLp2u_qcq-35" style="edgeStyle=orthogonalEdgeStyle;rounded=0;orthogonalLoop=1;jettySize=auto;html=1;endArrow=classic;endFill=1;" edge="1" parent="qI_F97sDJoIzJ8Fcwjjt-1" source="0F-RVmH0eigcLp2u_qcq-30" target="0F-RVmH0eigcLp2u_qcq-32">
          <mxGeometry relative="1" as="geometry">
            <Array as="points">
              <mxPoint x="1920" y="415"/>
              <mxPoint x="1930" y="415"/>
            </Array>
          </mxGeometry>
        </mxCell>
        <mxCell id="0F-RVmH0eigcLp2u_qcq-41" value="[is not in inventory]" style="text;html=1;align=center;verticalAlign=middle;resizable=0;points=[];labelBackgroundColor=#ffffff;" vertex="1" connectable="0" parent="0F-RVmH0eigcLp2u_qcq-35">
          <mxGeometry x="-0.3" y="-2" relative="1" as="geometry">
            <mxPoint as="offset"/>
          </mxGeometry>
        </mxCell>
        <mxCell id="0F-RVmH0eigcLp2u_qcq-42" style="edgeStyle=orthogonalEdgeStyle;rounded=0;orthogonalLoop=1;jettySize=auto;html=1;endArrow=classic;endFill=1;" edge="1" parent="qI_F97sDJoIzJ8Fcwjjt-1" source="0F-RVmH0eigcLp2u_qcq-30" target="0F-RVmH0eigcLp2u_qcq-40">
          <mxGeometry relative="1" as="geometry"/>
        </mxCell>
        <mxCell id="0F-RVmH0eigcLp2u_qcq-30" value="" style="rhombus;whiteSpace=wrap;html=1;fillColor=#ffffff;fontSize=12;" vertex="1" parent="qI_F97sDJoIzJ8Fcwjjt-1">
          <mxGeometry x="1900" y="320" width="40" height="40" as="geometry"/>
        </mxCell>
        <mxCell id="0F-RVmH0eigcLp2u_qcq-31" value="" style="ellipse;html=1;shape=endState;fillColor=#000000;strokeColor=#ff0000;fontSize=12;" vertex="1" parent="qI_F97sDJoIzJ8Fcwjjt-1">
          <mxGeometry x="2000" y="400" width="40" height="40" as="geometry"/>
        </mxCell>
        <mxCell id="0F-RVmH0eigcLp2u_qcq-34" style="rounded=0;orthogonalLoop=1;jettySize=auto;html=1;endArrow=none;endFill=0;dashed=1;" edge="1" parent="qI_F97sDJoIzJ8Fcwjjt-1" source="0F-RVmH0eigcLp2u_qcq-32" target="0F-RVmH0eigcLp2u_qcq-33">
          <mxGeometry relative="1" as="geometry"/>
        </mxCell>
        <mxCell id="0F-RVmH0eigcLp2u_qcq-38" style="edgeStyle=orthogonalEdgeStyle;rounded=0;orthogonalLoop=1;jettySize=auto;html=1;endArrow=classic;endFill=1;" edge="1" parent="qI_F97sDJoIzJ8Fcwjjt-1" source="0F-RVmH0eigcLp2u_qcq-32" target="0F-RVmH0eigcLp2u_qcq-31">
          <mxGeometry relative="1" as="geometry"/>
        </mxCell>
        <mxCell id="0F-RVmH0eigcLp2u_qcq-32" value="Print fail message" style="rounded=1;whiteSpace=wrap;html=1;" vertex="1" parent="qI_F97sDJoIzJ8Fcwjjt-1">
          <mxGeometry x="1880" y="400" width="80" height="40" as="geometry"/>
        </mxCell>
        <mxCell id="0F-RVmH0eigcLp2u_qcq-33" value="&quot;The item you &lt;br&gt;tried&amp;nbsp;to drop is not in your inventory.&quot;" style="shape=note;whiteSpace=wrap;html=1;size=14;verticalAlign=top;align=left;spacingTop=-6;fillColor=none;" vertex="1" parent="qI_F97sDJoIzJ8Fcwjjt-1">
          <mxGeometry x="1760" y="392.5" width="100" height="55" as="geometry"/>
        </mxCell>
        <mxCell id="0F-RVmH0eigcLp2u_qcq-44" style="edgeStyle=orthogonalEdgeStyle;rounded=0;orthogonalLoop=1;jettySize=auto;html=1;endArrow=classic;endFill=1;" edge="1" parent="qI_F97sDJoIzJ8Fcwjjt-1" source="0F-RVmH0eigcLp2u_qcq-40" target="0F-RVmH0eigcLp2u_qcq-43">
          <mxGeometry relative="1" as="geometry"/>
        </mxCell>
        <mxCell id="0F-RVmH0eigcLp2u_qcq-40" value="Remove item from player&#39;s inventory" style="rounded=1;whiteSpace=wrap;html=1;" vertex="1" parent="qI_F97sDJoIzJ8Fcwjjt-1">
          <mxGeometry x="1960" y="320" width="80" height="40" as="geometry"/>
        </mxCell>
        <mxCell id="0F-RVmH0eigcLp2u_qcq-47" style="edgeStyle=orthogonalEdgeStyle;rounded=0;orthogonalLoop=1;jettySize=auto;html=1;endArrow=classic;endFill=1;" edge="1" parent="qI_F97sDJoIzJ8Fcwjjt-1" source="0F-RVmH0eigcLp2u_qcq-43" target="0F-RVmH0eigcLp2u_qcq-46">
          <mxGeometry relative="1" as="geometry"/>
        </mxCell>
        <mxCell id="0F-RVmH0eigcLp2u_qcq-43" value="Add item to current room&#39;s inventory" style="rounded=1;whiteSpace=wrap;html=1;" vertex="1" parent="qI_F97sDJoIzJ8Fcwjjt-1">
          <mxGeometry x="2060" y="320" width="100" height="40" as="geometry"/>
        </mxCell>
        <mxCell id="0F-RVmH0eigcLp2u_qcq-46" value="" style="ellipse;html=1;shape=endState;fillColor=#000000;strokeColor=#ff0000;fontSize=12;" vertex="1" parent="qI_F97sDJoIzJ8Fcwjjt-1">
          <mxGeometry x="2180" y="320" width="40" height="40" as="geometry"/>
        </mxCell>
        <mxCell id="0F-RVmH0eigcLp2u_qcq-49" value="&lt;b&gt;Drop Item&amp;nbsp;&lt;/b&gt;" style="text;html=1;strokeColor=none;fillColor=none;align=center;verticalAlign=middle;whiteSpace=wrap;rounded=0;fontSize=16;" vertex="1" parent="qI_F97sDJoIzJ8Fcwjjt-1">
          <mxGeometry x="1740" y="260" width="100" height="40" as="geometry"/>
        </mxCell>
        <mxCell id="0F-RVmH0eigcLp2u_qcq-50" value="" style="rounded=0;whiteSpace=wrap;html=1;fillColor=none;fontSize=12;" vertex="1" parent="qI_F97sDJoIzJ8Fcwjjt-1">
          <mxGeometry x="1740" y="500" width="580" height="200" as="geometry"/>
        </mxCell>
        <mxCell id="0F-RVmH0eigcLp2u_qcq-51" style="edgeStyle=orthogonalEdgeStyle;rounded=0;orthogonalLoop=1;jettySize=auto;html=1;endArrow=classic;endFill=1;" edge="1" parent="qI_F97sDJoIzJ8Fcwjjt-1" source="0F-RVmH0eigcLp2u_qcq-52" target="0F-RVmH0eigcLp2u_qcq-54">
          <mxGeometry relative="1" as="geometry"/>
        </mxCell>
        <mxCell id="0F-RVmH0eigcLp2u_qcq-52" value="Item name" style="rounded=0;whiteSpace=wrap;html=1;fillColor=#ffffff;fontSize=12;" vertex="1" parent="qI_F97sDJoIzJ8Fcwjjt-1">
          <mxGeometry x="1700" y="560" width="80" height="40" as="geometry"/>
        </mxCell>
        <mxCell id="0F-RVmH0eigcLp2u_qcq-53" style="edgeStyle=orthogonalEdgeStyle;rounded=0;orthogonalLoop=1;jettySize=auto;html=1;endArrow=classic;endFill=1;" edge="1" parent="qI_F97sDJoIzJ8Fcwjjt-1" source="0F-RVmH0eigcLp2u_qcq-54" target="0F-RVmH0eigcLp2u_qcq-58">
          <mxGeometry relative="1" as="geometry"/>
        </mxCell>
        <mxCell id="0F-RVmH0eigcLp2u_qcq-54" value="Test if item is in current room&#39;s inventory" style="rounded=1;whiteSpace=wrap;html=1;" vertex="1" parent="qI_F97sDJoIzJ8Fcwjjt-1">
          <mxGeometry x="1800" y="560" width="120" height="40" as="geometry"/>
        </mxCell>
        <mxCell id="0F-RVmH0eigcLp2u_qcq-55" style="edgeStyle=orthogonalEdgeStyle;rounded=0;orthogonalLoop=1;jettySize=auto;html=1;endArrow=classic;endFill=1;" edge="1" parent="qI_F97sDJoIzJ8Fcwjjt-1" source="0F-RVmH0eigcLp2u_qcq-58" target="0F-RVmH0eigcLp2u_qcq-62">
          <mxGeometry relative="1" as="geometry">
            <Array as="points">
              <mxPoint x="1920" y="655"/>
              <mxPoint x="1930" y="655"/>
            </Array>
          </mxGeometry>
        </mxCell>
        <mxCell id="0F-RVmH0eigcLp2u_qcq-56" value="[is not in inventory]" style="text;html=1;align=center;verticalAlign=middle;resizable=0;points=[];labelBackgroundColor=#ffffff;" vertex="1" connectable="0" parent="0F-RVmH0eigcLp2u_qcq-55">
          <mxGeometry x="-0.3" y="-2" relative="1" as="geometry">
            <mxPoint as="offset"/>
          </mxGeometry>
        </mxCell>
        <mxCell id="0F-RVmH0eigcLp2u_qcq-57" style="edgeStyle=orthogonalEdgeStyle;rounded=0;orthogonalLoop=1;jettySize=auto;html=1;endArrow=classic;endFill=1;" edge="1" parent="qI_F97sDJoIzJ8Fcwjjt-1" source="0F-RVmH0eigcLp2u_qcq-58" target="0F-RVmH0eigcLp2u_qcq-65">
          <mxGeometry relative="1" as="geometry"/>
        </mxCell>
        <mxCell id="0F-RVmH0eigcLp2u_qcq-58" value="" style="rhombus;whiteSpace=wrap;html=1;fillColor=#ffffff;fontSize=12;" vertex="1" parent="qI_F97sDJoIzJ8Fcwjjt-1">
          <mxGeometry x="1940" y="560" width="40" height="40" as="geometry"/>
        </mxCell>
        <mxCell id="0F-RVmH0eigcLp2u_qcq-59" value="" style="ellipse;html=1;shape=endState;fillColor=#000000;strokeColor=#ff0000;fontSize=12;" vertex="1" parent="qI_F97sDJoIzJ8Fcwjjt-1">
          <mxGeometry x="2060" y="640" width="40" height="40" as="geometry"/>
        </mxCell>
        <mxCell id="0F-RVmH0eigcLp2u_qcq-60" style="rounded=0;orthogonalLoop=1;jettySize=auto;html=1;endArrow=none;endFill=0;dashed=1;" edge="1" parent="qI_F97sDJoIzJ8Fcwjjt-1" source="0F-RVmH0eigcLp2u_qcq-62" target="0F-RVmH0eigcLp2u_qcq-63">
          <mxGeometry relative="1" as="geometry"/>
        </mxCell>
        <mxCell id="0F-RVmH0eigcLp2u_qcq-61" style="edgeStyle=orthogonalEdgeStyle;rounded=0;orthogonalLoop=1;jettySize=auto;html=1;endArrow=classic;endFill=1;" edge="1" parent="qI_F97sDJoIzJ8Fcwjjt-1" source="0F-RVmH0eigcLp2u_qcq-62" target="0F-RVmH0eigcLp2u_qcq-59">
          <mxGeometry relative="1" as="geometry"/>
        </mxCell>
        <mxCell id="0F-RVmH0eigcLp2u_qcq-62" value="Print fail message" style="rounded=1;whiteSpace=wrap;html=1;" vertex="1" parent="qI_F97sDJoIzJ8Fcwjjt-1">
          <mxGeometry x="1920" y="640" width="80" height="40" as="geometry"/>
        </mxCell>
        <mxCell id="0F-RVmH0eigcLp2u_qcq-63" value="&quot;The item you &lt;br&gt;tried&amp;nbsp;to take is not in this room.&quot;" style="shape=note;whiteSpace=wrap;html=1;size=14;verticalAlign=top;align=left;spacingTop=-6;fillColor=none;" vertex="1" parent="qI_F97sDJoIzJ8Fcwjjt-1">
          <mxGeometry x="1760" y="632.5" width="100" height="55" as="geometry"/>
        </mxCell>
        <mxCell id="0F-RVmH0eigcLp2u_qcq-64" style="edgeStyle=orthogonalEdgeStyle;rounded=0;orthogonalLoop=1;jettySize=auto;html=1;endArrow=classic;endFill=1;" edge="1" parent="qI_F97sDJoIzJ8Fcwjjt-1" source="0F-RVmH0eigcLp2u_qcq-65" target="0F-RVmH0eigcLp2u_qcq-67">
          <mxGeometry relative="1" as="geometry"/>
        </mxCell>
        <mxCell id="0F-RVmH0eigcLp2u_qcq-65" value="Remove item from current room&#39;s&amp;nbsp; inventory" style="rounded=1;whiteSpace=wrap;html=1;" vertex="1" parent="qI_F97sDJoIzJ8Fcwjjt-1">
          <mxGeometry x="2000" y="560" width="100" height="40" as="geometry"/>
        </mxCell>
        <mxCell id="0F-RVmH0eigcLp2u_qcq-66" style="edgeStyle=orthogonalEdgeStyle;rounded=0;orthogonalLoop=1;jettySize=auto;html=1;endArrow=classic;endFill=1;" edge="1" parent="qI_F97sDJoIzJ8Fcwjjt-1" source="0F-RVmH0eigcLp2u_qcq-67" target="0F-RVmH0eigcLp2u_qcq-68">
          <mxGeometry relative="1" as="geometry"/>
        </mxCell>
        <mxCell id="0F-RVmH0eigcLp2u_qcq-67" value="Add item to player&#39;s&amp;nbsp; inventory" style="rounded=1;whiteSpace=wrap;html=1;" vertex="1" parent="qI_F97sDJoIzJ8Fcwjjt-1">
          <mxGeometry x="2130" y="560" width="100" height="40" as="geometry"/>
        </mxCell>
        <mxCell id="0F-RVmH0eigcLp2u_qcq-68" value="" style="ellipse;html=1;shape=endState;fillColor=#000000;strokeColor=#ff0000;fontSize=12;" vertex="1" parent="qI_F97sDJoIzJ8Fcwjjt-1">
          <mxGeometry x="2260" y="560" width="40" height="40" as="geometry"/>
        </mxCell>
        <mxCell id="0F-RVmH0eigcLp2u_qcq-69" value="&lt;b&gt;Take Item&lt;/b&gt;" style="text;html=1;strokeColor=none;fillColor=none;align=center;verticalAlign=middle;whiteSpace=wrap;rounded=0;fontSize=16;" vertex="1" parent="qI_F97sDJoIzJ8Fcwjjt-1">
          <mxGeometry x="1740" y="500" width="100" height="40" as="geometry"/>
        </mxCell>
        <mxCell id="uq7TzKTjRaqq49oDNZ32-3" style="edgeStyle=orthogonalEdgeStyle;rounded=0;orthogonalLoop=1;jettySize=auto;html=1;endArrow=classic;endFill=1;endSize=6;" edge="1" parent="qI_F97sDJoIzJ8Fcwjjt-1" source="YTWdFNnsAJnxk5LOMy5u-0" target="YTWdFNnsAJnxk5LOMy5u-1">
          <mxGeometry relative="1" as="geometry"/>
        </mxCell>
        <mxCell id="YTWdFNnsAJnxk5LOMy5u-0" value="direction" style="rounded=0;whiteSpace=wrap;html=1;fillColor=#ffffff;fontSize=12;" vertex="1" parent="qI_F97sDJoIzJ8Fcwjjt-1">
          <mxGeometry x="860" y="860" width="80" height="40" as="geometry"/>
        </mxCell>
        <mxCell id="LpUsydpUU3Xn3hDZ7zet-16" style="edgeStyle=orthogonalEdgeStyle;rounded=0;orthogonalLoop=1;jettySize=auto;html=1;endArrow=classic;endFill=1;endSize=6;" edge="1" parent="qI_F97sDJoIzJ8Fcwjjt-1" source="YTWdFNnsAJnxk5LOMy5u-1" target="LpUsydpUU3Xn3hDZ7zet-0">
          <mxGeometry relative="1" as="geometry"/>
        </mxCell>
        <mxCell id="YTWdFNnsAJnxk5LOMy5u-1" value="Check direction against current room&#39;s exits&#39; Key (Direction)" style="rounded=1;whiteSpace=wrap;html=1;" vertex="1" parent="qI_F97sDJoIzJ8Fcwjjt-1">
          <mxGeometry x="960" y="860" width="140" height="40" as="geometry"/>
        </mxCell>
        <mxCell id="LpUsydpUU3Xn3hDZ7zet-4" style="edgeStyle=orthogonalEdgeStyle;rounded=0;orthogonalLoop=1;jettySize=auto;html=1;endArrow=classic;endFill=1;endSize=6;" edge="1" parent="qI_F97sDJoIzJ8Fcwjjt-1" source="LpUsydpUU3Xn3hDZ7zet-0" target="LpUsydpUU3Xn3hDZ7zet-3">
          <mxGeometry relative="1" as="geometry"/>
        </mxCell>
        <mxCell id="LpUsydpUU3Xn3hDZ7zet-5" value="[does not match exits]" style="text;html=1;align=center;verticalAlign=middle;resizable=0;points=[];labelBackgroundColor=#ffffff;" vertex="1" connectable="0" parent="LpUsydpUU3Xn3hDZ7zet-4">
          <mxGeometry x="-0.2182" y="3" relative="1" as="geometry">
            <mxPoint as="offset"/>
          </mxGeometry>
        </mxCell>
        <mxCell id="LpUsydpUU3Xn3hDZ7zet-12" style="edgeStyle=orthogonalEdgeStyle;rounded=0;orthogonalLoop=1;jettySize=auto;html=1;endArrow=classic;endFill=1;endSize=6;" edge="1" parent="qI_F97sDJoIzJ8Fcwjjt-1" source="LpUsydpUU3Xn3hDZ7zet-0" target="LpUsydpUU3Xn3hDZ7zet-11">
          <mxGeometry relative="1" as="geometry"/>
        </mxCell>
        <mxCell id="LpUsydpUU3Xn3hDZ7zet-0" value="" style="rhombus;whiteSpace=wrap;html=1;fillColor=#ffffff;fontSize=12;" vertex="1" parent="qI_F97sDJoIzJ8Fcwjjt-1">
          <mxGeometry x="1120" y="860" width="40" height="40" as="geometry"/>
        </mxCell>
        <mxCell id="LpUsydpUU3Xn3hDZ7zet-9" style="edgeStyle=orthogonalEdgeStyle;rounded=0;orthogonalLoop=1;jettySize=auto;html=1;endArrow=none;endFill=0;endSize=6;dashed=1;" edge="1" parent="qI_F97sDJoIzJ8Fcwjjt-1" source="LpUsydpUU3Xn3hDZ7zet-3" target="LpUsydpUU3Xn3hDZ7zet-8">
          <mxGeometry relative="1" as="geometry"/>
        </mxCell>
        <mxCell id="x0B6jbQSezUy4VW3onh3-3" style="edgeStyle=orthogonalEdgeStyle;rounded=0;orthogonalLoop=1;jettySize=auto;html=1;endArrow=classic;endFill=1;endSize=6;" edge="1" parent="qI_F97sDJoIzJ8Fcwjjt-1" source="LpUsydpUU3Xn3hDZ7zet-3" target="x0B6jbQSezUy4VW3onh3-2">
          <mxGeometry relative="1" as="geometry"/>
        </mxCell>
        <mxCell id="LpUsydpUU3Xn3hDZ7zet-3" value="Print fail message" style="rounded=1;whiteSpace=wrap;html=1;" vertex="1" parent="qI_F97sDJoIzJ8Fcwjjt-1">
          <mxGeometry x="1080" y="940" width="120" height="40" as="geometry"/>
        </mxCell>
        <mxCell id="LpUsydpUU3Xn3hDZ7zet-6" value="" style="ellipse;html=1;shape=endState;fillColor=#000000;strokeColor=#ff0000;fontSize=12;" vertex="1" parent="qI_F97sDJoIzJ8Fcwjjt-1">
          <mxGeometry x="1220" y="1000" width="40" height="40" as="geometry"/>
        </mxCell>
        <mxCell id="LpUsydpUU3Xn3hDZ7zet-8" value="&quot;There is &lt;br&gt;nowhere to go in that direction.&quot;" style="shape=note;whiteSpace=wrap;html=1;size=14;verticalAlign=top;align=left;spacingTop=-6;fillColor=none;" vertex="1" parent="qI_F97sDJoIzJ8Fcwjjt-1">
          <mxGeometry x="920" y="932.5" width="100" height="55" as="geometry"/>
        </mxCell>
        <mxCell id="LpUsydpUU3Xn3hDZ7zet-15" style="edgeStyle=orthogonalEdgeStyle;rounded=0;orthogonalLoop=1;jettySize=auto;html=1;endArrow=classic;endFill=1;endSize=6;" edge="1" parent="qI_F97sDJoIzJ8Fcwjjt-1" source="LpUsydpUU3Xn3hDZ7zet-11" target="LpUsydpUU3Xn3hDZ7zet-14">
          <mxGeometry relative="1" as="geometry"/>
        </mxCell>
        <mxCell id="LpUsydpUU3Xn3hDZ7zet-11" value="Get destination Room from exits&#39; Value" style="rounded=1;whiteSpace=wrap;html=1;" vertex="1" parent="qI_F97sDJoIzJ8Fcwjjt-1">
          <mxGeometry x="1180" y="860" width="120" height="40" as="geometry"/>
        </mxCell>
        <mxCell id="NMD0NGsnqibaRMlozS2e-1" style="edgeStyle=orthogonalEdgeStyle;rounded=0;orthogonalLoop=1;jettySize=auto;html=1;endArrow=classic;endFill=1;endSize=6;" edge="1" parent="qI_F97sDJoIzJ8Fcwjjt-1" source="LpUsydpUU3Xn3hDZ7zet-14" target="LpUsydpUU3Xn3hDZ7zet-20">
          <mxGeometry relative="1" as="geometry"/>
        </mxCell>
        <mxCell id="LpUsydpUU3Xn3hDZ7zet-14" value="destination" style="rounded=0;whiteSpace=wrap;html=1;fillColor=#ffffff;fontSize=12;" vertex="1" parent="qI_F97sDJoIzJ8Fcwjjt-1">
          <mxGeometry x="1320" y="860" width="80" height="40" as="geometry"/>
        </mxCell>
        <mxCell id="x0B6jbQSezUy4VW3onh3-5" style="edgeStyle=orthogonalEdgeStyle;rounded=0;orthogonalLoop=1;jettySize=auto;html=1;endArrow=classic;endFill=1;endSize=6;" edge="1" parent="qI_F97sDJoIzJ8Fcwjjt-1" source="LpUsydpUU3Xn3hDZ7zet-18" target="x0B6jbQSezUy4VW3onh3-2">
          <mxGeometry relative="1" as="geometry"/>
        </mxCell>
        <mxCell id="LpUsydpUU3Xn3hDZ7zet-18" value="Add character to destination&#39;s characters list" style="rounded=1;whiteSpace=wrap;html=1;" vertex="1" parent="qI_F97sDJoIzJ8Fcwjjt-1">
          <mxGeometry x="1300" y="940" width="100" height="40" as="geometry"/>
        </mxCell>
        <mxCell id="x0B6jbQSezUy4VW3onh3-9" style="edgeStyle=orthogonalEdgeStyle;rounded=0;orthogonalLoop=1;jettySize=auto;html=1;endArrow=classic;endFill=1;endSize=6;" edge="1" parent="qI_F97sDJoIzJ8Fcwjjt-1" source="LpUsydpUU3Xn3hDZ7zet-20" target="x0B6jbQSezUy4VW3onh3-0">
          <mxGeometry relative="1" as="geometry"/>
        </mxCell>
        <mxCell id="LpUsydpUU3Xn3hDZ7zet-20" value="Remove character from current room&#39;s characters list" style="rounded=1;whiteSpace=wrap;html=1;" vertex="1" parent="qI_F97sDJoIzJ8Fcwjjt-1">
          <mxGeometry x="1420" y="860" width="120" height="40" as="geometry"/>
        </mxCell>
        <mxCell id="x0B6jbQSezUy4VW3onh3-1" style="edgeStyle=orthogonalEdgeStyle;rounded=0;orthogonalLoop=1;jettySize=auto;html=1;endArrow=classic;endFill=1;endSize=6;" edge="1" parent="qI_F97sDJoIzJ8Fcwjjt-1" source="x0B6jbQSezUy4VW3onh3-0" target="LpUsydpUU3Xn3hDZ7zet-18">
          <mxGeometry relative="1" as="geometry"/>
        </mxCell>
        <mxCell id="x0B6jbQSezUy4VW3onh3-0" value="Change character&#39;s currentRoom to destination" style="rounded=1;whiteSpace=wrap;html=1;" vertex="1" parent="qI_F97sDJoIzJ8Fcwjjt-1">
          <mxGeometry x="1420" y="940" width="120" height="40" as="geometry"/>
        </mxCell>
        <mxCell id="x0B6jbQSezUy4VW3onh3-4" style="edgeStyle=orthogonalEdgeStyle;rounded=0;orthogonalLoop=1;jettySize=auto;html=1;endArrow=classic;endFill=1;endSize=6;" edge="1" parent="qI_F97sDJoIzJ8Fcwjjt-1" source="x0B6jbQSezUy4VW3onh3-2" target="LpUsydpUU3Xn3hDZ7zet-6">
          <mxGeometry relative="1" as="geometry"/>
        </mxCell>
        <mxCell id="x0B6jbQSezUy4VW3onh3-2" value="" style="rhombus;whiteSpace=wrap;html=1;fillColor=#ffffff;fontSize=12;" vertex="1" parent="qI_F97sDJoIzJ8Fcwjjt-1">
          <mxGeometry x="1220" y="940" width="40" height="40" as="geometry"/>
        </mxCell>
        <mxCell id="x0B6jbQSezUy4VW3onh3-8" value="&lt;b&gt;Move&lt;/b&gt;" style="text;html=1;strokeColor=none;fillColor=none;align=center;verticalAlign=middle;whiteSpace=wrap;rounded=0;fontSize=16;" vertex="1" parent="qI_F97sDJoIzJ8Fcwjjt-1">
          <mxGeometry x="900" y="800" width="60" height="40" as="geometry"/>
        </mxCell>
        <mxCell id="5Byr1OxnrVEhdTqIzdZQ-12" style="edgeStyle=orthogonalEdgeStyle;rounded=0;orthogonalLoop=1;jettySize=auto;html=1;endArrow=classic;endFill=1;endSize=6;" edge="1" parent="qI_F97sDJoIzJ8Fcwjjt-1" source="5Byr1OxnrVEhdTqIzdZQ-2" target="5Byr1OxnrVEhdTqIzdZQ-11">
          <mxGeometry relative="1" as="geometry"/>
        </mxCell>
        <mxCell id="5Byr1OxnrVEhdTqIzdZQ-2" value="character name" style="rounded=0;whiteSpace=wrap;html=1;fillColor=#ffffff;fontSize=12;" vertex="1" parent="qI_F97sDJoIzJ8Fcwjjt-1">
          <mxGeometry x="1700" y="800" width="80" height="40" as="geometry"/>
        </mxCell>
        <mxCell id="5Byr1OxnrVEhdTqIzdZQ-6" style="edgeStyle=orthogonalEdgeStyle;rounded=0;orthogonalLoop=1;jettySize=auto;html=1;endArrow=classic;endFill=1;endSize=6;" edge="1" parent="qI_F97sDJoIzJ8Fcwjjt-1" source="5Byr1OxnrVEhdTqIzdZQ-3" target="fjHCLHRmVgMWuAmFMhev-1">
          <mxGeometry relative="1" as="geometry"/>
        </mxCell>
        <mxCell id="5Byr1OxnrVEhdTqIzdZQ-3" value="Print fail message" style="rounded=1;whiteSpace=wrap;html=1;" vertex="1" parent="qI_F97sDJoIzJ8Fcwjjt-1">
          <mxGeometry x="1040" y="160" width="80" height="40" as="geometry"/>
        </mxCell>
        <mxCell id="5Byr1OxnrVEhdTqIzdZQ-8" style="edgeStyle=orthogonalEdgeStyle;rounded=0;orthogonalLoop=1;jettySize=auto;html=1;endArrow=none;endFill=0;endSize=6;dashed=1;" edge="1" parent="qI_F97sDJoIzJ8Fcwjjt-1" source="5Byr1OxnrVEhdTqIzdZQ-7" target="7kXN3SBLUDwcWu-5-iRZ-8">
          <mxGeometry relative="1" as="geometry"/>
        </mxCell>
        <mxCell id="5Byr1OxnrVEhdTqIzdZQ-7" value="Using the &lt;br&gt;player as argument" style="shape=note;whiteSpace=wrap;html=1;size=14;verticalAlign=top;align=left;spacingTop=-6;fillColor=none;" vertex="1" parent="qI_F97sDJoIzJ8Fcwjjt-1">
          <mxGeometry x="1185" y="156.25" width="75" height="47.5" as="geometry"/>
        </mxCell>
        <mxCell id="5Byr1OxnrVEhdTqIzdZQ-14" style="edgeStyle=orthogonalEdgeStyle;rounded=0;orthogonalLoop=1;jettySize=auto;html=1;endArrow=classic;endFill=1;endSize=6;" edge="1" parent="qI_F97sDJoIzJ8Fcwjjt-1" source="5Byr1OxnrVEhdTqIzdZQ-11" target="5Byr1OxnrVEhdTqIzdZQ-13">
          <mxGeometry relative="1" as="geometry"/>
        </mxCell>
        <mxCell id="5Byr1OxnrVEhdTqIzdZQ-11" value="Search current room&#39;s characters list for the character name" style="rounded=1;whiteSpace=wrap;html=1;" vertex="1" parent="qI_F97sDJoIzJ8Fcwjjt-1">
          <mxGeometry x="1800" y="800" width="120" height="40" as="geometry"/>
        </mxCell>
        <mxCell id="5Byr1OxnrVEhdTqIzdZQ-19" style="edgeStyle=orthogonalEdgeStyle;rounded=0;orthogonalLoop=1;jettySize=auto;html=1;endArrow=classic;endFill=1;endSize=6;" edge="1" parent="qI_F97sDJoIzJ8Fcwjjt-1" source="5Byr1OxnrVEhdTqIzdZQ-13" target="5Byr1OxnrVEhdTqIzdZQ-17">
          <mxGeometry relative="1" as="geometry">
            <Array as="points">
              <mxPoint x="1960" y="860"/>
              <mxPoint x="1960" y="860"/>
            </Array>
          </mxGeometry>
        </mxCell>
        <mxCell id="5Byr1OxnrVEhdTqIzdZQ-20" value="[is not in list]" style="text;html=1;align=center;verticalAlign=middle;resizable=0;points=[];labelBackgroundColor=#ffffff;" vertex="1" connectable="0" parent="5Byr1OxnrVEhdTqIzdZQ-19">
          <mxGeometry x="0.28" y="3" relative="1" as="geometry">
            <mxPoint x="-3" y="-6" as="offset"/>
          </mxGeometry>
        </mxCell>
        <mxCell id="5Byr1OxnrVEhdTqIzdZQ-13" value="" style="rhombus;whiteSpace=wrap;html=1;fillColor=#ffffff;fontSize=12;" vertex="1" parent="qI_F97sDJoIzJ8Fcwjjt-1">
          <mxGeometry x="1940" y="800" width="40" height="40" as="geometry"/>
        </mxCell>
        <mxCell id="5Byr1OxnrVEhdTqIzdZQ-16" style="rounded=0;orthogonalLoop=1;jettySize=auto;html=1;endArrow=none;endFill=0;dashed=1;" edge="1" source="5Byr1OxnrVEhdTqIzdZQ-17" target="5Byr1OxnrVEhdTqIzdZQ-18" parent="qI_F97sDJoIzJ8Fcwjjt-1">
          <mxGeometry relative="1" as="geometry"/>
        </mxCell>
        <mxCell id="Fks1G8xKnYootON_2MnA-40" style="edgeStyle=orthogonalEdgeStyle;rounded=0;orthogonalLoop=1;jettySize=auto;html=1;endArrow=classic;endFill=1;endSize=6;" edge="1" parent="qI_F97sDJoIzJ8Fcwjjt-1" source="5Byr1OxnrVEhdTqIzdZQ-17" target="Fks1G8xKnYootON_2MnA-30">
          <mxGeometry relative="1" as="geometry">
            <Array as="points">
              <mxPoint x="2010" y="900"/>
              <mxPoint x="2010" y="900"/>
            </Array>
          </mxGeometry>
        </mxCell>
        <mxCell id="5Byr1OxnrVEhdTqIzdZQ-17" value="Print fail message" style="rounded=1;whiteSpace=wrap;html=1;" vertex="1" parent="qI_F97sDJoIzJ8Fcwjjt-1">
          <mxGeometry x="1920" y="880" width="80" height="40" as="geometry"/>
        </mxCell>
        <mxCell id="5Byr1OxnrVEhdTqIzdZQ-18" value="&quot;The character &lt;br&gt;you tried to attack is not in this room.&quot;" style="shape=note;whiteSpace=wrap;html=1;size=14;verticalAlign=top;align=left;spacingTop=-6;fillColor=none;" vertex="1" parent="qI_F97sDJoIzJ8Fcwjjt-1">
          <mxGeometry x="1760" y="860" width="110" height="55" as="geometry"/>
        </mxCell>
        <mxCell id="5Byr1OxnrVEhdTqIzdZQ-21" value="Attack &lt;b&gt;rh&lt;/b&gt;" style="rounded=1;whiteSpace=wrap;html=1;" vertex="1" parent="qI_F97sDJoIzJ8Fcwjjt-1">
          <mxGeometry x="2120" y="800" width="80" height="40" as="geometry"/>
        </mxCell>
        <mxCell id="Fks1G8xKnYootON_2MnA-54" style="edgeStyle=orthogonalEdgeStyle;rounded=0;orthogonalLoop=1;jettySize=auto;html=1;endArrow=classic;endFill=1;endSize=6;" edge="1" parent="qI_F97sDJoIzJ8Fcwjjt-1" source="Fks1G8xKnYootON_2MnA-11" target="5Byr1OxnrVEhdTqIzdZQ-21">
          <mxGeometry relative="1" as="geometry"/>
        </mxCell>
        <mxCell id="Fks1G8xKnYootON_2MnA-11" value="target" style="rounded=0;whiteSpace=wrap;html=1;fillColor=#ffffff;fontSize=12;" vertex="1" parent="qI_F97sDJoIzJ8Fcwjjt-1">
          <mxGeometry x="2000" y="800" width="80" height="40" as="geometry"/>
        </mxCell>
        <mxCell id="Fks1G8xKnYootON_2MnA-12" style="edgeStyle=orthogonalEdgeStyle;rounded=0;orthogonalLoop=1;jettySize=auto;html=1;endArrow=classic;endFill=1;endSize=6;" edge="1" parent="qI_F97sDJoIzJ8Fcwjjt-1" source="5Byr1OxnrVEhdTqIzdZQ-13" target="Fks1G8xKnYootON_2MnA-11">
          <mxGeometry relative="1" as="geometry">
            <mxPoint x="1980" y="820" as="sourcePoint"/>
            <mxPoint x="2080" y="820" as="targetPoint"/>
            <Array as="points">
              <mxPoint x="2010" y="820"/>
              <mxPoint x="2010" y="820"/>
            </Array>
          </mxGeometry>
        </mxCell>
        <mxCell id="Fks1G8xKnYootON_2MnA-30" value="" style="ellipse;html=1;shape=endState;fillColor=#000000;strokeColor=#ff0000;fontSize=12;" vertex="1" parent="qI_F97sDJoIzJ8Fcwjjt-1">
          <mxGeometry x="2040" y="880" width="40" height="40" as="geometry"/>
        </mxCell>
      </root>
    </mxGraphModel>
  </diagram>
</mxfile>
